<svg xmlns="http://www.w3.org/2000/svg" viewBox="0 0 127.48 127.48"><defs><style>.cls-1{fill:#fff;}</style></defs><title>benefit-4</title><g id="Слой_2" data-name="Слой 2"><g id="Слой_1-2" data-name="Слой 1"><path class="cls-1" d="M44,30.24,35,15.42c-.68-1.13-1.37-2.24-2-3.37A8,8,0,0,1,39.79,0c16,.19,32,0,48.06.09a7.78,7.78,0,0,1,6.69,11.79c-3.32,5.7-6.81,11.3-10.22,16.95-.27.45-.52.91-.78,1.37,3.19,2.3,6.35,4.47,9.38,6.8,10.65,8.23,19.57,18,25.87,30,6.15,11.69,9.46,24.09,8.54,37.4-.58,8.47-5.07,14.59-12.09,19a26.84,26.84,0,0,1-14.52,4.11q-37.2,0-74.42,0c-11.93,0-22.6-7.87-25.5-19.24a38.14,38.14,0,0,1-.64-11.7C1.39,77,9.92,60.83,23.35,47A108.91,108.91,0,0,1,42.69,31.17C43.09,30.91,43.47,30.61,44,30.24Zm19.59,89.27c11.89,0,23.78.06,35.68-.05a27.66,27.66,0,0,0,7.58-1.08c7-2.08,13.15-8.29,12.62-17.13-.14-2.32-.16-4.65-.4-7a67.12,67.12,0,0,0-12.48-32.06C99.08,51.58,89.32,43.37,78.36,36.5a4.13,4.13,0,0,0-2-.59q-12.6-.06-25.2,0a4,4,0,0,0-2,.58,101.91,101.91,0,0,0-24.59,21C13.88,70.29,8,84.86,8,101.67a16.23,16.23,0,0,0,6.58,13.59,21,21,0,0,0,13.33,4.25Q45.75,119.5,63.59,119.51ZM40.14,8.09c.2.43.3.74.46,1,3.65,6,7.28,11.93,11,17.85a2.4,2.4,0,0,0,1.76.85c6.9.06,13.79,0,20.68.06a2.13,2.13,0,0,0,2.09-1.18c3.49-5.78,7-11.52,10.55-17.27.24-.39.41-.81.67-1.32Z"/><path class="cls-1" d="M63.71,107.62c-4.09,0-4.43-.28-4.33-4.37,0-1.58-.32-2.16-2-2.49a21,21,0,0,1-5.87-2.4c-1.84-1-1.91-2.44-.45-3.91.82-.82,1.68-1.61,2.54-2.4a2.73,2.73,0,0,1,3.21-.44,11.12,11.12,0,0,0,3.47.86c2.38.13,4.76,0,7.14,0a3.11,3.11,0,0,0,3.41-2.69,3.39,3.39,0,0,0-2.23-4.07c-2.43-.84-4.93-1.47-7.37-2.27a44.3,44.3,0,0,1-7.5-2.7A11.85,11.85,0,0,1,48,68a12,12,0,0,1,9.86-9.47c1.16-.19,1.6-.58,1.48-1.74a15.28,15.28,0,0,1,0-2.62,2.27,2.27,0,0,1,2.39-2.39c1.21-.05,2.43-.05,3.64,0a2.45,2.45,0,0,1,2.69,2.74c0,1.2-.35,2.76.26,3.52s2.25.55,3.35,1a32.63,32.63,0,0,1,4.67,2.3,1.94,1.94,0,0,1,.45,3.13,18.38,18.38,0,0,1-3.23,3.13,3,3,0,0,1-2.54.29,11.73,11.73,0,0,0-5.52-1c-1.74,0-3.49,0-5.24,0-2.07,0-3.32,1-3.64,2.83a3.45,3.45,0,0,0,2.57,4.15c3,.93,5.95,1.78,8.92,2.68,1.21.36,2.42.71,3.61,1.13,4.81,1.71,8.41,7,8,11.72-.63,6.38-4.55,10.8-10.35,11.59-.87.12-1.32.38-1.23,1.35a22.62,22.62,0,0,1,0,2.33c0,2.24-.72,3-3,3Z"/></g></g></svg>