<svg xmlns="http://www.w3.org/2000/svg" viewBox="0 0 130.5 115.97"><defs><style>.cls-1{fill:#fff;}</style></defs><title>benefit-1</title><g id="Слой_2" data-name="Слой 2"><g id="Слой_1-2" data-name="Слой 1"><path class="cls-1" d="M47.2.08c6.36-.34,12.22,6.14,10.5,13.2a1.57,1.57,0,0,0,.66,1.89q9.12,7.26,18.18,14.59a1.84,1.84,0,0,0,2.32.34,10,10,0,0,1,9.3.09A1.39,1.39,0,0,0,89.92,30q9.27-7.48,18.58-14.93a1.41,1.41,0,0,0,.6-1.67A10.57,10.57,0,0,1,115.55.82a10.73,10.73,0,0,1,13.57,4.77,10.82,10.82,0,0,1-3.19,14.15,10.44,10.44,0,0,1-10.91.88,1.71,1.71,0,0,0-2.11.27q-9.12,7.37-18.31,14.64a1.59,1.59,0,0,0-.68,1.88,10.24,10.24,0,0,1-3.69,10.9A10.25,10.25,0,0,1,78.8,49.72c-4.11-1.92-6.12-5.31-6.3-9.79a6.19,6.19,0,0,1,.27-2.23A1.8,1.8,0,0,0,72,35.37q-9.09-7.18-18.1-14.46a1.69,1.69,0,0,0-2.11-.25,10.34,10.34,0,0,1-8.23.45,1.52,1.52,0,0,0-1.86.36Q31.61,31.61,21.46,41.7a1.4,1.4,0,0,0-.39,1.72A10.85,10.85,0,1,1,.23,49.19,10.26,10.26,0,0,1,3.74,38.93a10.19,10.19,0,0,1,10.63-2,1.67,1.67,0,0,0,2.07-.46q9.93-10,19.94-20A1.58,1.58,0,0,0,37,14.55C34.05,6.41,40.83-.38,47.2.08Zm-.06,7.21a3.51,3.51,0,0,0-3.58,3.59,3.58,3.58,0,0,0,7.15,0A3.51,3.51,0,0,0,47.14,7.29ZM11,43.54a3.54,3.54,0,0,0-3.68,3.51,3.7,3.7,0,0,0,3.58,3.68,3.58,3.58,0,0,0,3.57-3.51A3.46,3.46,0,0,0,11,43.54ZM119.71,7.29a3.45,3.45,0,0,0-3.62,3.4,3.5,3.5,0,0,0,3.4,3.77A3.67,3.67,0,0,0,123.24,11,3.6,3.6,0,0,0,119.71,7.29ZM83.32,43.41A3.49,3.49,0,0,0,87,39.9a3.57,3.57,0,0,0-7.14-.14A3.44,3.44,0,0,0,83.32,43.41Z"/><path class="cls-1" d="M36.23,79.75q0-16,0-31.91c0-3.13,1.33-4.4,4.48-4.42q6.42,0,12.84,0c3.16,0,4.5,1.36,4.5,4.56q0,31.77,0,63.56c0,3.1-1.34,4.42-4.43,4.42H40.52c-2.91,0-4.24-1.23-4.25-4.17-.05-8.16,0-16.33,0-24.49Zm7.4,29c1.95,0,3.84-.06,5.72,0,1.15.05,1.39-.4,1.39-1.45q0-27.54,0-55.06c0-.47-.07-.93-.1-1.35h-7Z"/><path class="cls-1" d="M130.47,79.74q0,16,0,32.05c0,2.9-1.28,4.16-4.21,4.17-4.5,0-9,0-13.5,0-2.58,0-4-1.42-4-4q0-32.23,0-64.48c0-2.52,1.38-4,3.92-4q7-.11,13.91,0c2.63,0,3.9,1.44,3.9,4.12Q130.48,63.65,130.47,79.74Zm-7.21-29c-2.05,0-3.93.06-5.81,0-1.14-.05-1.41.37-1.41,1.44q0,27.53,0,55.06c0,.13,0,.27,0,.4-.07.79.28,1.1,1.08,1.08,1.45,0,2.91,0,4.36,0,1.75,0,1.75,0,1.75-1.7V50.77Z"/><path class="cls-1" d="M94.29,94.27v17.48c0,1.27-.16,2.55-1.29,3.31a4.92,4.92,0,0,1-2.42.86c-4.76.08-9.53,0-14.29,0a3.56,3.56,0,0,1-3.79-3.44,9.32,9.32,0,0,1,0-1.06V76.9c0-1.27.07-2.6,1.17-3.36a5.65,5.65,0,0,1,2.87-1c4.5-.11,9-.05,13.51,0,2.87,0,4.23,1.31,4.24,4.19,0,5.87,0,11.74,0,17.61ZM86.8,108.7a2.45,2.45,0,0,0,.16-.54q0-13.71,0-27.42c0-.82-.44-.93-1.09-.93-1.54,0-3.09.08-4.63,0-1.21-.07-1.49.4-1.48,1.53,0,6,0,12,0,18,0,2.74,0,5.47,0,8.21,0,.39.42,1.09.67,1.1C82.63,108.74,84.73,108.7,86.8,108.7Z"/><path class="cls-1" d="M.07,97.92c0-4.76,0-9.53,0-14.29,0-2.35,1.25-3.81,3.59-3.86,4.81-.09,9.62-.08,14.42,0a3.54,3.54,0,0,1,3.71,3.82q.06,14.3,0,28.59A3.57,3.57,0,0,1,17.93,116c-4.72,0-9.44,0-14.16,0a3.45,3.45,0,0,1-3.7-3.73C.06,107.45.07,102.69.07,97.92ZM7.44,87a4.51,4.51,0,0,0-.14.6q0,10,0,20.11c0,.78.33,1,1,1,1.59,0,3.18-.06,4.76,0,1.11.05,1.45-.34,1.44-1.43-.05-4.81,0-9.61,0-14.42,0-1.59,0-3.18,0-4.76,0-.38-.48-1-.76-1C11.62,87,9.55,87,7.44,87Z"/></g></g></svg>