<svg xmlns="http://www.w3.org/2000/svg" viewBox="0 0 127.5 127.5"><defs><style>.cls-1{fill:#fff;}</style></defs><title>benefit-2</title><g id="Слой_2" data-name="Слой 2"><g id="Слой_1-2" data-name="Слой 1"><path class="cls-1" d="M127.5,63.75A63.75,63.75,0,1,0,63.22,127.5h.53A63.6,63.6,0,0,0,78,125.88l.07,0q3-.69,5.87-1.65l1.19-.4,1.16-.43q.92-.34,1.83-.72l.63-.26c.87-.38,1.75-.76,2.61-1.18a63.28,63.28,0,0,0,17.11-12l0,0A63.54,63.54,0,0,0,127.5,63.75ZM19,97.41a56,56,0,1,1,84.86,5.44L69.47,69.33a8,8,0,0,0,2-7.79L99,34l-2.73-2.73A46,46,0,0,0,17.77,63.75h7.72A38.26,38.26,0,0,1,87.93,34.1L81.6,40.43a29.11,29.11,0,0,0-17.85-6.08A29.55,29.55,0,0,0,36.27,53.29L43,55.84A22.36,22.36,0,0,1,63.75,41.52a22,22,0,0,1,12.74,4L66,56.07a7.88,7.88,0,0,0-2.24-.32,8,8,0,0,0-1.12,15.91l-6.74,47.55h0a54.58,54.58,0,0,1-10.71-2.61A56.3,56.3,0,0,1,19,97.41Z"/></g></g></svg>