<svg xmlns="http://www.w3.org/2000/svg" xmlns:xlink="http://www.w3.org/1999/xlink" viewBox="0 0 336.53 245.46"><defs><style>.cls-1,.cls-2,.cls-28{fill:none;stroke-miterlimit:10;}.cls-1,.cls-2{stroke:#68bbff;stroke-width:0.8px;}.cls-2{stroke-dasharray:3.1 3.1;}.cls-3{fill:url(#Безымянный_градиент_47);}.cls-4{fill:url(#Безымянный_градиент_47-2);}.cls-5{fill:url(#Безымянный_градиент_47-3);}.cls-6{fill:url(#Безымянный_градиент_47-4);}.cls-7{fill:url(#Безымянный_градиент_47-5);}.cls-8{fill:url(#Безымянный_градиент_47-6);}.cls-9{fill:url(#Безымянный_градиент_47-7);}.cls-10{fill:url(#Безымянный_градиент_47-8);}.cls-11{fill:url(#Безымянный_градиент_47-9);}.cls-12{fill:url(#Безымянный_градиент_47-10);}.cls-13{fill:url(#Безымянный_градиент_47-11);}.cls-14{fill:url(#Безымянный_градиент_47-12);}.cls-15{fill:url(#Безымянный_градиент_47-13);}.cls-16{fill:url(#Безымянный_градиент_47-14);}.cls-17{fill:url(#Безымянный_градиент_47-15);}.cls-18{fill:url(#Безымянный_градиент_47-16);}.cls-19{fill:url(#Безымянный_градиент_47-17);}.cls-20{fill:url(#Безымянный_градиент_47-18);}.cls-21{fill:url(#Безымянный_градиент_47-19);}.cls-22{fill:url(#Безымянный_градиент_47-20);}.cls-23{fill:url(#Безымянный_градиент_47-21);}.cls-24{fill:url(#Безымянный_градиент_47-22);}.cls-25{fill:url(#Безымянный_градиент_47-23);}.cls-26{fill:url(#Безымянный_градиент_47-24);}.cls-27{fill:url(#Безымянный_градиент_47-25);}.cls-28{stroke:#fff;stroke-width:1.22px;}.cls-29{fill:#fff;}.cls-30{fill:#6abcff;}.cls-31{fill:#9fd4ff;}</style><linearGradient id="Безымянный_градиент_47" x1="21.85" y1="294.33" x2="6.77" y2="24.15" gradientUnits="userSpaceOnUse"><stop offset="0" stop-color="#fff"/><stop offset="1" stop-color="#63b9ff"/></linearGradient><linearGradient id="Безымянный_градиент_47-2" x1="37.68" y1="293.45" x2="22.6" y2="23.26" xlink:href="#Безымянный_градиент_47"/><linearGradient id="Безымянный_градиент_47-3" x1="51.22" y1="292.69" x2="36.14" y2="22.51" xlink:href="#Безымянный_градиент_47"/><linearGradient id="Безымянный_градиент_47-4" x1="63.85" y1="291.99" x2="48.77" y2="21.8" xlink:href="#Безымянный_градиент_47"/><linearGradient id="Безымянный_градиент_47-5" x1="76.25" y1="291.29" x2="61.17" y2="21.11" xlink:href="#Безымянный_градиент_47"/><linearGradient id="Безымянный_градиент_47-6" x1="88.62" y1="290.6" x2="73.54" y2="20.42" xlink:href="#Безымянный_градиент_47"/><linearGradient id="Безымянный_градиент_47-7" x1="101.03" y1="289.91" x2="85.95" y2="19.73" xlink:href="#Безымянный_градиент_47"/><linearGradient id="Безымянный_градиент_47-8" x1="113.52" y1="289.21" x2="98.44" y2="19.03" xlink:href="#Безымянный_градиент_47"/><linearGradient id="Безымянный_градиент_47-9" x1="126.15" y1="288.51" x2="111.07" y2="18.33" xlink:href="#Безымянный_градиент_47"/><linearGradient id="Безымянный_градиент_47-10" x1="138.89" y1="287.8" x2="123.81" y2="17.61" xlink:href="#Безымянный_градиент_47"/><linearGradient id="Безымянный_градиент_47-11" x1="151.7" y1="287.08" x2="136.62" y2="16.9" xlink:href="#Безымянный_градиент_47"/><linearGradient id="Безымянный_градиент_47-12" x1="164.58" y1="286.36" x2="149.5" y2="16.18" xlink:href="#Безымянный_градиент_47"/><linearGradient id="Безымянный_градиент_47-13" x1="177.51" y1="285.64" x2="162.43" y2="15.46" xlink:href="#Безымянный_градиент_47"/><linearGradient id="Безымянный_градиент_47-14" x1="190.49" y1="284.92" x2="175.41" y2="14.73" xlink:href="#Безымянный_градиент_47"/><linearGradient id="Безымянный_градиент_47-15" x1="203.5" y1="284.19" x2="188.42" y2="14.01" xlink:href="#Безымянный_градиент_47"/><linearGradient id="Безымянный_градиент_47-16" x1="216.51" y1="283.47" x2="201.43" y2="13.28" xlink:href="#Безымянный_градиент_47"/><linearGradient id="Безымянный_градиент_47-17" x1="229.57" y1="282.74" x2="214.49" y2="12.55" xlink:href="#Безымянный_градиент_47"/><linearGradient id="Безымянный_градиент_47-18" x1="242.61" y1="282.01" x2="227.53" y2="11.83" xlink:href="#Безымянный_градиент_47"/><linearGradient id="Безымянный_градиент_47-19" x1="255.67" y1="281.28" x2="240.59" y2="11.1" xlink:href="#Безымянный_градиент_47"/><linearGradient id="Безымянный_градиент_47-20" x1="268.73" y1="280.55" x2="253.65" y2="10.37" xlink:href="#Безымянный_градиент_47"/><linearGradient id="Безымянный_градиент_47-21" x1="281.77" y1="279.82" x2="266.69" y2="9.64" xlink:href="#Безымянный_градиент_47"/><linearGradient id="Безымянный_градиент_47-22" x1="294.84" y1="279.09" x2="279.76" y2="8.91" xlink:href="#Безымянный_градиент_47"/><linearGradient id="Безымянный_градиент_47-23" x1="307.91" y1="278.37" x2="292.83" y2="8.18" xlink:href="#Безымянный_градиент_47"/><linearGradient id="Безымянный_градиент_47-24" x1="320.97" y1="277.64" x2="305.89" y2="7.45" xlink:href="#Безымянный_градиент_47"/><linearGradient id="Безымянный_градиент_47-25" x1="334.03" y1="276.91" x2="318.95" y2="6.72" xlink:href="#Безымянный_градиент_47"/></defs><title>Chart</title><g id="Слой_2" data-name="Слой 2"><g id="Слой_1-2" data-name="Слой 1"><line class="cls-1" x1="69.84" x2="69.84" y2="1.59"/><line class="cls-2" x1="69.84" y1="4.69" x2="69.84" y2="90.07"/><line class="cls-1" x1="69.84" y1="91.62" x2="69.84" y2="93.21"/><rect class="cls-3" x="9.69" y="141.86" width="11.14" height="68.7"/><rect class="cls-4" x="22.81" y="42.98" width="11.14" height="167.57"/><rect class="cls-5" x="35.94" y="26.69" width="11.14" height="183.87"/><rect class="cls-6" x="49.06" y="42.98" width="11.14" height="167.57"/><rect class="cls-7" x="62.19" y="67.59" width="11.14" height="142.97"/><rect class="cls-8" x="75.31" y="93.21" width="11.14" height="117.35"/><rect class="cls-9" x="88.44" y="117.72" width="11.14" height="92.84"/><rect class="cls-10" x="101.56" y="139.07" width="11.14" height="71.49"/><rect class="cls-11" x="114.69" y="155.37" width="11.14" height="55.19"/><rect class="cls-12" x="127.81" y="167.62" width="11.14" height="42.94"/><rect class="cls-13" x="140.94" y="177.37" width="11.14" height="33.19"/><rect class="cls-14" x="154.06" y="184.89" width="11.14" height="25.67"/><rect class="cls-15" x="167.19" y="190.46" width="11.14" height="20.1"/><rect class="cls-16" x="180.31" y="193.96" width="11.14" height="16.59"/><rect class="cls-17" x="193.44" y="196.86" width="11.14" height="13.69"/><rect class="cls-18" x="206.56" y="199.42" width="11.14" height="11.14"/><rect class="cls-19" x="219.69" y="200.51" width="11.14" height="10.05"/><rect class="cls-20" x="232.81" y="201.81" width="11.14" height="8.75"/><rect class="cls-21" x="245.94" y="202.81" width="11.14" height="7.75"/><rect class="cls-22" x="259.06" y="203.64" width="11.14" height="6.92"/><rect class="cls-23" x="272.19" y="205.13" width="11.14" height="5.43"/><rect class="cls-24" x="285.31" y="205.68" width="11.14" height="4.87"/><rect class="cls-25" x="298.44" y="206.43" width="11.14" height="4.13"/><rect class="cls-26" x="311.56" y="207.26" width="11.14" height="3.3"/><rect class="cls-27" x="324.69" y="208.18" width="11.14" height="2.38"/><path class="cls-28" d="M1.52,172.68s11.61,21,26.38-1,28.5-34.21,49.61-42.21,20.76-7.23,25-9.42,19-5.7,26.74-3.48,21.2,3.73,29.25,1.6,22,2.33,30.14.19,23.29-4.83,30.15-1.66,12,6,19.79,2.59,10.56-10.87,14.43-6.9,6.15,10.27,17.94,4,9.94-10.55,25.77-8.84,39.41-21,39.41-21"/><path class="cls-29" d="M4.5,220.31a3.38,3.38,0,0,1-.57,2.11,2,2,0,0,1-1.68.73,2,2,0,0,1-1.66-.72A3.27,3.27,0,0,1,0,220.38v-1.23A3.28,3.28,0,0,1,.58,217a2,2,0,0,1,1.66-.73,2,2,0,0,1,1.67.72,3.29,3.29,0,0,1,.59,2.05ZM3.18,219a2.42,2.42,0,0,0-.23-1.2.76.76,0,0,0-.71-.38.73.73,0,0,0-.68.36,2.25,2.25,0,0,0-.24,1.12v1.62a2.66,2.66,0,0,0,.22,1.21.75.75,0,0,0,.71.4.74.74,0,0,0,.7-.38,2.48,2.48,0,0,0,.23-1.17Z"/><path class="cls-29" d="M68.59,223.06H67.27V218l-1.57.49v-1.08l2.75-1h.14Z"/><path class="cls-29" d="M135.32,223.06h-4.57v-.9l2.16-2.3a5.35,5.35,0,0,0,.65-.84,1.42,1.42,0,0,0,.22-.69,1,1,0,0,0-.23-.7.8.8,0,0,0-.64-.25.84.84,0,0,0-.7.31,1.16,1.16,0,0,0-.26.81h-1.33a2.19,2.19,0,0,1,.29-1.11,2,2,0,0,1,.82-.79,2.53,2.53,0,0,1,1.2-.29,2.36,2.36,0,0,1,1.6.5,1.74,1.74,0,0,1,.57,1.39,2.14,2.14,0,0,1-.26,1,5.57,5.57,0,0,1-.87,1.19l-1.52,1.6h2.87Z"/><path class="cls-29" d="M197.47,219.15h.7a1.06,1.06,0,0,0,.75-.25.93.93,0,0,0,.24-.67.82.82,0,0,0-.24-.63.92.92,0,0,0-.66-.22,1,1,0,0,0-.64.21.66.66,0,0,0-.25.54H196a1.63,1.63,0,0,1,.29-.94,1.78,1.78,0,0,1,.78-.64,2.57,2.57,0,0,1,1.11-.24,2.48,2.48,0,0,1,1.66.51,1.72,1.72,0,0,1,.6,1.39,1.35,1.35,0,0,1-.28.84,1.84,1.84,0,0,1-.73.59,1.79,1.79,0,0,1,.84.6,1.69,1.69,0,0,1,.27,1,1.75,1.75,0,0,1-.64,1.42,2.66,2.66,0,0,1-1.72.53,2.44,2.44,0,0,1-1.62-.52,1.71,1.71,0,0,1-.64-1.39h1.32a.78.78,0,0,0,.28.61,1.17,1.17,0,0,0,1.43,0,.87.87,0,0,0,.27-.66c0-.67-.36-1-1.09-1h-.7Z"/><path class="cls-29" d="M265.4,220.56h.75v1.06h-.75v1.44h-1.32v-1.44h-2.73l-.06-.83,2.77-4.38h1.34Zm-2.8,0h1.48v-2.35l-.09.15Z"/><path class="cls-29" d="M327.05,219.79l.39-3.38h3.73v1.1h-2.65l-.16,1.43a2,2,0,0,1,1-.25,1.9,1.9,0,0,1,1.49.59,2.34,2.34,0,0,1,.54,1.65,2.41,2.41,0,0,1-.27,1.15,2,2,0,0,1-.78.79,2.42,2.42,0,0,1-1.2.28,2.62,2.62,0,0,1-1.12-.24,2,2,0,0,1-.82-.69,2,2,0,0,1-.32-1h1.31a1,1,0,0,0,.29.65,1,1,0,0,0,.65.23.8.8,0,0,0,.69-.33,1.41,1.41,0,0,0,.25-.91,1.3,1.3,0,0,0-.28-.87,1,1,0,0,0-.79-.3,1.13,1.13,0,0,0-.77.25l-.13.12Z"/><path class="cls-30" d="M80,12.5h-.88V5.85H80Z"/><path class="cls-30" d="M82.26,7.56l0,.62a1.79,1.79,0,0,1,1.48-.71c1,0,1.57.59,1.58,1.76V12.5H84.5V9.23a1.11,1.11,0,0,0-.24-.79,1,1,0,0,0-.75-.26,1.28,1.28,0,0,0-.72.22,1.43,1.43,0,0,0-.48.58V12.5h-.85V7.56Z"/><path class="cls-30" d="M88.61,11.9a1.24,1.24,0,0,0,.79-.27.92.92,0,0,0,.37-.69h.8a1.45,1.45,0,0,1-.29.81,2,2,0,0,1-.72.62,2.1,2.1,0,0,1-1,.22A2,2,0,0,1,87,11.92a2.66,2.66,0,0,1-.59-1.84V9.93a2.9,2.9,0,0,1,.26-1.28,2,2,0,0,1,.76-.87,2.13,2.13,0,0,1,1.17-.31A2,2,0,0,1,90,8a1.81,1.81,0,0,1,.58,1.3h-.8a1.14,1.14,0,0,0-1.17-1.1,1.18,1.18,0,0,0-1,.46A2.17,2.17,0,0,0,87.25,10v.16a2.15,2.15,0,0,0,.35,1.31A1.19,1.19,0,0,0,88.61,11.9Z"/><path class="cls-30" d="M93.92,8.32a1.87,1.87,0,0,0-.42,0A1.13,1.13,0,0,0,92.37,9V12.5h-.84V7.56h.82v.57a1.32,1.32,0,0,1,1.18-.66.94.94,0,0,1,.38.06Z"/><path class="cls-30" d="M96.66,12.59A2.17,2.17,0,0,1,95,11.93a2.45,2.45,0,0,1-.63-1.76V10a2.9,2.9,0,0,1,.28-1.31,2.2,2.2,0,0,1,.79-.91,1.93,1.93,0,0,1,1.09-.32,1.84,1.84,0,0,1,1.5.63,2.73,2.73,0,0,1,.54,1.82v.35H95.24a1.75,1.75,0,0,0,.42,1.18,1.36,1.36,0,0,0,1,.45,1.47,1.47,0,0,0,.76-.18,1.92,1.92,0,0,0,.55-.48l.51.4A2.05,2.05,0,0,1,96.66,12.59Zm-.11-4.43a1.14,1.14,0,0,0-.86.37,1.87,1.87,0,0,0-.43,1.05h2.48V9.51a1.58,1.58,0,0,0-.35-1A1.06,1.06,0,0,0,96.55,8.16Z"/><path class="cls-30" d="M102.62,12.5a1.65,1.65,0,0,1-.12-.52,1.87,1.87,0,0,1-1.41.61,1.72,1.72,0,0,1-1.2-.41,1.35,1.35,0,0,1-.47-1,1.42,1.42,0,0,1,.59-1.2,2.79,2.79,0,0,1,1.65-.43h.83V9.12a.93.93,0,0,0-.27-.71,1.05,1.05,0,0,0-.78-.26,1.19,1.19,0,0,0-.76.23.67.67,0,0,0-.31.55h-.85a1.15,1.15,0,0,1,.27-.72,1.7,1.7,0,0,1,.71-.54,2.31,2.31,0,0,1,1-.2,2,2,0,0,1,1.34.42,1.56,1.56,0,0,1,.5,1.18v2.28a2.7,2.7,0,0,0,.18,1.08v.07Zm-1.4-.64a1.47,1.47,0,0,0,.75-.21,1.21,1.21,0,0,0,.52-.53v-1h-.67c-1,0-1.55.31-1.55.91a.76.76,0,0,0,.26.62A1,1,0,0,0,101.22,11.86Z"/><path class="cls-30" d="M107.54,11.19a.63.63,0,0,0-.26-.53,2.36,2.36,0,0,0-.9-.33,4.07,4.07,0,0,1-1-.33,1.54,1.54,0,0,1-.56-.45,1.12,1.12,0,0,1-.18-.64,1.26,1.26,0,0,1,.52-1,2,2,0,0,1,1.31-.42,2.05,2.05,0,0,1,1.36.43A1.38,1.38,0,0,1,108.34,9h-.85a.77.77,0,0,0-.3-.6,1.07,1.07,0,0,0-.74-.25,1.16,1.16,0,0,0-.72.2.63.63,0,0,0-.26.53.51.51,0,0,0,.24.46,3.21,3.21,0,0,0,.87.3,4.3,4.3,0,0,1,1,.33,1.49,1.49,0,0,1,.58.48,1.13,1.13,0,0,1,.19.67,1.24,1.24,0,0,1-.53,1.06,2.19,2.19,0,0,1-1.37.4,2.46,2.46,0,0,1-1-.21,1.67,1.67,0,0,1-.72-.58,1.45,1.45,0,0,1-.26-.82h.85a.85.85,0,0,0,.34.67,1.29,1.29,0,0,0,.84.25,1.37,1.37,0,0,0,.77-.19A.6.6,0,0,0,107.54,11.19Z"/><path class="cls-30" d="M111.54,12.59a2.17,2.17,0,0,1-1.64-.66,2.45,2.45,0,0,1-.63-1.76V10a2.9,2.9,0,0,1,.28-1.31,2.2,2.2,0,0,1,.79-.91,1.93,1.93,0,0,1,1.09-.32,1.87,1.87,0,0,1,1.5.63,2.73,2.73,0,0,1,.54,1.82v.35h-3.35a1.75,1.75,0,0,0,.42,1.18,1.36,1.36,0,0,0,1,.45,1.5,1.5,0,0,0,.76-.18,1.92,1.92,0,0,0,.55-.48l.51.4A2.05,2.05,0,0,1,111.54,12.59Zm-.11-4.43a1.12,1.12,0,0,0-.86.37,1.87,1.87,0,0,0-.43,1.05h2.48V9.51a1.58,1.58,0,0,0-.35-1A1.06,1.06,0,0,0,111.43,8.16Z"/><path class="cls-30" d="M120.94,10.08a2.91,2.91,0,0,1-.52,1.82,1.65,1.65,0,0,1-1.4.69,1.79,1.79,0,0,1-1.41-.57V14.4h-.85V7.56h.77l0,.55A1.72,1.72,0,0,1,119,7.47a1.69,1.69,0,0,1,1.41.67,3,3,0,0,1,.52,1.87Zm-.85-.09a2.16,2.16,0,0,0-.35-1.32,1.15,1.15,0,0,0-1-.49,1.24,1.24,0,0,0-1.15.68v2.37a1.24,1.24,0,0,0,1.16.67,1.13,1.13,0,0,0,1-.48A2.37,2.37,0,0,0,120.09,10Z"/><path class="cls-30" d="M121.79,10a2.76,2.76,0,0,1,.29-1.3,2.11,2.11,0,0,1,.79-.9A2.17,2.17,0,0,1,124,7.47a2.08,2.08,0,0,1,1.64.7,2.7,2.7,0,0,1,.62,1.86v.05a3,3,0,0,1-.27,1.3,2.24,2.24,0,0,1-3.61.52,2.73,2.73,0,0,1-.62-1.86Zm.85.1a2.18,2.18,0,0,0,.38,1.33,1.31,1.31,0,0,0,2,0,2.35,2.35,0,0,0,.38-1.42,2.06,2.06,0,0,0-.39-1.31,1.28,1.28,0,0,0-2,0A2.33,2.33,0,0,0,122.64,10.08Z"/><path class="cls-30" d="M127.36,6.25a.51.51,0,0,1,.12-.35.46.46,0,0,1,.37-.14.47.47,0,0,1,.38.14.48.48,0,0,1,.13.35.47.47,0,0,1-.13.34.51.51,0,0,1-.38.14.5.5,0,0,1-.37-.14A.5.5,0,0,1,127.36,6.25Zm.91,6.25h-.84V7.56h.84Z"/><path class="cls-30" d="M130.42,7.56l0,.62a1.79,1.79,0,0,1,1.48-.71c1,0,1.57.59,1.58,1.76V12.5h-.84V9.23a1.12,1.12,0,0,0-.25-.79,1,1,0,0,0-.74-.26,1.28,1.28,0,0,0-.73.22,1.61,1.61,0,0,0-.48.58V12.5h-.85V7.56Z"/><path class="cls-30" d="M135.94,6.36v1.2h.92v.65h-.92v3.07a.71.71,0,0,0,.12.45.51.51,0,0,0,.42.15,1.84,1.84,0,0,0,.4-.06v.68a2.48,2.48,0,0,1-.65.09,1,1,0,0,1-.85-.34,1.48,1.48,0,0,1-.29-1V8.21h-.9V7.56h.9V6.36Z"/><path class="cls-31" d="M110.16,244.32h-1.37v-6.66h1.37Z"/><path class="cls-31" d="M112.56,239.37l0,.57a1.73,1.73,0,0,1,1.42-.66,1.44,1.44,0,0,1,1.17.46,2.1,2.1,0,0,1,.39,1.38v3.2h-1.32v-3.16a.86.86,0,0,0-.18-.61.8.8,0,0,0-.61-.19.88.88,0,0,0-.83.47v3.49h-1.32v-4.95Z"/><path class="cls-31" d="M118.44,242.71l.92-3.34h1.38l-1.67,4.95h-1.26l-1.67-4.95h1.38Z"/><path class="cls-31" d="M123.53,244.41a2.42,2.42,0,0,1-1.77-.67,2.37,2.37,0,0,1-.68-1.77v-.13a2.93,2.93,0,0,1,.29-1.34,2.09,2.09,0,0,1,.81-.9,2.33,2.33,0,0,1,1.21-.32,2.06,2.06,0,0,1,1.59.64,2.6,2.6,0,0,1,.59,1.82v.54h-3.15a1.21,1.21,0,0,0,.38.77,1.17,1.17,0,0,0,.82.3,1.41,1.41,0,0,0,1.19-.56l.65.73a2,2,0,0,1-.8.66A2.78,2.78,0,0,1,123.53,244.41Zm-.15-4.06a.87.87,0,0,0-.64.26,1.44,1.44,0,0,0-.31.77h1.84v-.11a1,1,0,0,0-.24-.68A.85.85,0,0,0,123.38,240.35Z"/><path class="cls-31" d="M129,243a.42.42,0,0,0-.24-.38,3.13,3.13,0,0,0-.77-.25q-1.77-.36-1.77-1.5a1.35,1.35,0,0,1,.55-1.1,2.22,2.22,0,0,1,1.43-.44,2.33,2.33,0,0,1,1.5.45,1.38,1.38,0,0,1,.57,1.15H129a.65.65,0,0,0-.19-.47.78.78,0,0,0-.57-.19.82.82,0,0,0-.52.15.5.5,0,0,0-.18.39.41.41,0,0,0,.21.35,2.21,2.21,0,0,0,.7.24,5.14,5.14,0,0,1,.83.22,1.36,1.36,0,0,1,1.05,1.33,1.28,1.28,0,0,1-.58,1.09,2.51,2.51,0,0,1-1.5.42,2.57,2.57,0,0,1-1.1-.22,1.79,1.79,0,0,1-.76-.61,1.42,1.42,0,0,1-.27-.83h1.25a.7.7,0,0,0,.26.54,1.07,1.07,0,0,0,.65.18.92.92,0,0,0,.57-.14A.46.46,0,0,0,129,243Z"/><path class="cls-31" d="M132.71,238.16v1.21h.85v1h-.85v2.47a.57.57,0,0,0,.11.39.52.52,0,0,0,.4.12,2.21,2.21,0,0,0,.39,0v1a2.72,2.72,0,0,1-.8.12,1.26,1.26,0,0,1-1.42-1.4v-2.67h-.72v-1h.72v-1.21Z"/><path class="cls-31" d="M135.53,239.37l0,.56a1.75,1.75,0,0,1,1.43-.65,1.32,1.32,0,0,1,1.31.76,1.67,1.67,0,0,1,1.48-.76,1.48,1.48,0,0,1,1.2.47,2.16,2.16,0,0,1,.39,1.41v3.16h-1.32v-3.15a1,1,0,0,0-.17-.62.72.72,0,0,0-.58-.19.83.83,0,0,0-.82.56v3.4h-1.32v-3.15a.88.88,0,0,0-.17-.62.71.71,0,0,0-.57-.19.86.86,0,0,0-.82.46v3.5h-1.32v-4.95Z"/><path class="cls-31" d="M144.67,244.41a2.42,2.42,0,0,1-1.77-.67,2.37,2.37,0,0,1-.68-1.77v-.13a3.06,3.06,0,0,1,.29-1.34,2.09,2.09,0,0,1,.81-.9,2.35,2.35,0,0,1,1.21-.32,2.09,2.09,0,0,1,1.6.64,2.65,2.65,0,0,1,.58,1.82v.54h-3.15a1.17,1.17,0,0,0,.39.77,1.13,1.13,0,0,0,.81.3,1.41,1.41,0,0,0,1.19-.56l.65.73a1.94,1.94,0,0,1-.8.66A2.75,2.75,0,0,1,144.67,244.41Zm-.15-4.06a.83.83,0,0,0-.63.26,1.37,1.37,0,0,0-.32.77h1.84v-.11a1,1,0,0,0-.24-.68A.85.85,0,0,0,144.52,240.35Z"/><path class="cls-31" d="M148.67,239.37l0,.57a1.75,1.75,0,0,1,1.43-.66,1.47,1.47,0,0,1,1.17.46,2.22,2.22,0,0,1,.39,1.38v3.2h-1.32v-3.16a.86.86,0,0,0-.18-.61.83.83,0,0,0-.61-.19.91.91,0,0,0-.84.47v3.49h-1.32v-4.95Z"/><path class="cls-31" d="M154.28,238.16v1.21h.85v1h-.85v2.47a.57.57,0,0,0,.11.39.52.52,0,0,0,.4.12,2.21,2.21,0,0,0,.39,0v1a2.72,2.72,0,0,1-.8.12A1.26,1.26,0,0,1,153,243v-2.67h-.72v-1H153v-1.21Z"/><path class="cls-31" d="M158.54,243a.42.42,0,0,0-.24-.38,3,3,0,0,0-.77-.25c-1.17-.24-1.76-.74-1.76-1.5a1.37,1.37,0,0,1,.54-1.1,2.24,2.24,0,0,1,1.43-.44,2.36,2.36,0,0,1,1.51.45,1.38,1.38,0,0,1,.56,1.15h-1.32a.64.64,0,0,0-.18-.47.78.78,0,0,0-.57-.19.81.81,0,0,0-.52.15.5.5,0,0,0-.18.39.41.41,0,0,0,.21.35,2.21,2.21,0,0,0,.7.24,5.44,5.44,0,0,1,.83.22,1.36,1.36,0,0,1,1.05,1.33,1.3,1.3,0,0,1-.58,1.09,2.51,2.51,0,0,1-1.5.42,2.59,2.59,0,0,1-1.11-.22,1.82,1.82,0,0,1-.75-.61,1.36,1.36,0,0,1-.28-.83h1.25a.71.71,0,0,0,.27.54,1,1,0,0,0,.64.18.94.94,0,0,0,.58-.14A.45.45,0,0,0,158.54,243Z"/><path class="cls-29" d="M212.61,242v2.35h-1.37v-6.66h2.6a3.05,3.05,0,0,1,1.32.28,2,2,0,0,1,.87.78,2.11,2.11,0,0,1,.31,1.15,1.93,1.93,0,0,1-.67,1.54,2.79,2.79,0,0,1-1.86.56Zm0-1.11h1.23a1.21,1.21,0,0,0,.83-.25.94.94,0,0,0,.28-.73,1.06,1.06,0,0,0-.29-.79,1,1,0,0,0-.79-.32h-1.26Z"/><path class="cls-29" d="M220,240.61l-.47,0a1,1,0,0,0-1,.5v3.24h-1.32v-4.95h1.25l0,.59a1.22,1.22,0,0,1,1.1-.68,1.4,1.4,0,0,1,.41.06Z"/><path class="cls-29" d="M220.24,241.8a2.9,2.9,0,0,1,.28-1.31,2,2,0,0,1,.82-.89,2.35,2.35,0,0,1,1.23-.32,2.31,2.31,0,0,1,1.64.61,2.49,2.49,0,0,1,.7,1.67v.34a2.58,2.58,0,0,1-.63,1.82,2.23,2.23,0,0,1-1.71.69,2.26,2.26,0,0,1-1.71-.68,2.66,2.66,0,0,1-.63-1.87Zm1.32.09a1.91,1.91,0,0,0,.26,1.08.88.88,0,0,0,.76.38.89.89,0,0,0,.75-.37,2,2,0,0,0,.27-1.18,1.82,1.82,0,0,0-.27-1.07.86.86,0,0,0-.76-.38.87.87,0,0,0-.75.37A2.16,2.16,0,0,0,221.56,241.89Z"/><path class="cls-29" d="M226.1,244.32v-4h-.74v-1h.74V239a1.75,1.75,0,0,1,.47-1.29,1.89,1.89,0,0,1,1.34-.46,3.1,3.1,0,0,1,.67.09v1a1.54,1.54,0,0,0-.4,0c-.5,0-.75.23-.75.7v.39h1v1h-1v4Z"/><path class="cls-29" d="M229.08,238.09a.68.68,0,0,1,.2-.49.86.86,0,0,1,1.08,0,.64.64,0,0,1,.2.49.69.69,0,0,1-.2.5.86.86,0,0,1-1.08,0A.69.69,0,0,1,229.08,238.09Zm1.4,6.23h-1.32v-4.95h1.32Z"/><path class="cls-29" d="M233.15,238.16v1.21H234v1h-.85v2.47a.57.57,0,0,0,.11.39.52.52,0,0,0,.4.12,2.21,2.21,0,0,0,.39,0v1a2.72,2.72,0,0,1-.8.12,1.26,1.26,0,0,1-1.42-1.4v-2.67h-.72v-1h.72v-1.21Z"/><circle class="cls-31" cx="98.62" cy="241.01" r="4.46"/><line class="cls-28" x1="196.38" y1="241.01" x2="206.56" y2="241.01"/></g></g></svg>