<svg xmlns="http://www.w3.org/2000/svg" viewBox="0 0 118.03 149.88"><defs><style>.cls-1{fill:none;stroke:#f2f2f2;stroke-miterlimit:10;stroke-width:3px;}</style></defs><title>Enviromental</title><g id="Слой_2" data-name="Слой 2"><g id="Слой_1-2" data-name="Слой 1"><path class="cls-1" d="M52,108.34c-3.11.78-5.68,1.56-8.3,2-14.45,2.66-25.6-2.55-33.65-14.55-2.55-3.79-4.48-8-7-12.58,5-1.42,9.25-3,13.68-3.86,7.25-1.48,14.51-1.55,21.61,1.12,7.65,2.86,13.36,8,17.72,14.8l.66,1a2.79,2.79,0,0,0,.44.25,101.84,101.84,0,0,0,6.3-23.41l-3.75.23c-9.94.48-19.57-.65-28.14-6.19C23.49,62,19.82,54.16,18.83,44.87a1.79,1.79,0,0,1,.73-1.5C30.35,39.31,41,38.63,50.73,46a37.28,37.28,0,0,1,11.8,15.67,15.86,15.86,0,0,0,2,3.75c.17-2.25.34-4.5.49-6.74s.21-4.21.39-6.31a2.79,2.79,0,0,0-1.15-2.7c-5.64-4.57-10.5-9.83-13.76-16.41C45.31,22.75,46.32,12.7,52.63,3c1-1.5,1.83-1.83,3.53-1.13C62.27,4.34,67.76,7.66,71.8,13s5.52,11.37,5.34,18A40.23,40.23,0,0,1,74,46a16.15,16.15,0,0,0-1.52,8c.15,1.66,0,3.35,0,5.34,1.86-2.45,3.41-4.76,5.24-6.83,6.66-7.56,14.84-12.14,25.15-11.81,3.11.09,6.2,1,9.28,1.67a1.84,1.84,0,0,1,1,1.44c-.58,16.46-9.12,28.46-27,30.92a53.27,53.27,0,0,1-14,0c-.86-.11-1.39,0-1.63,1-1.69,7.21-3.44,14.4-5.06,21.12,2.22-1.74,4.8-4,7.6-5.94A40.2,40.2,0,0,1,91,83.78c8.72-1.13,16.38,1.58,23.41,6.54.61.44,1.21.91,1.79,1.34-5.88,15.92-18.18,25.65-35.31,23.42A55.11,55.11,0,0,1,62.18,109l-1.87-1c-.48.85-1,1.63-1.38,2.44-5.47,10.3-12.45,19.37-21.79,26.48S17.33,148.14,5.5,148.38c-1.62,0-3.26-.25-3.78-1.91a5.94,5.94,0,0,1,.19-3.77c.63-1.52,2.33-1.63,3.8-1.66a44.42,44.42,0,0,0,22.58-6.79,63.18,63.18,0,0,0,19.76-19.63C49.34,112.68,50.52,110.67,52,108.34Z"/></g></g></svg>