<svg xmlns="http://www.w3.org/2000/svg" viewBox="0 0 167.59 118.18"><defs><style>.cls-1{fill:none;stroke:#f2f2f2;stroke-miterlimit:10;stroke-width:3px;}</style></defs><title>Social</title><g id="Слой_2" data-name="Слой 2"><g id="Слой_1-2" data-name="Слой 1"><path class="cls-1" d="M83.85,116.67q-18.42,0-36.83,0a12.21,12.21,0,0,1-12.57-12.38c0-5.1-.38-10.21,1-15.24A29.78,29.78,0,0,1,65.62,67.36a5.66,5.66,0,0,1,1.85.53c11,4.7,21.84,4.62,32.83,0,1.85-.78,4.25-.62,6.34-.38A29.35,29.35,0,0,1,133,93.81a52.78,52.78,0,0,1-.24,13.17c-.83,5.78-6,9.69-11.88,9.69Q102.34,116.69,83.85,116.67Z"/><path class="cls-1" d="M83.71,59a28.77,28.77,0,1,1,28.9-28.78A28.72,28.72,0,0,1,83.71,59Z"/><path class="cls-1" d="M121.66,63.79a15.62,15.62,0,0,1,10.84-4.71c5.91-.16,11.83-.2,17.73,0A16.25,16.25,0,0,1,165.94,74.5a81.08,81.08,0,0,1,0,9.61A8,8,0,0,1,157.76,92c-5.26.12-10.52,0-15.78,0-.77,0-1.2-.23-1.34-1-2-11.86-8.36-20.69-18.6-26.85A4,4,0,0,1,121.66,63.79Z"/><path class="cls-1" d="M45.59,63.56c-3.2,2.76-6.54,5.25-9.42,8.2A34.74,34.74,0,0,0,27,90.34c-.23,1.29-.66,1.73-2,1.71-4.76-.08-9.52,0-14.27,0-5.89,0-9.13-3.22-9.2-9.11,0-2.8-.06-5.61.11-8.41A16.29,16.29,0,0,1,17.34,59.07c5.91-.18,11.82-.11,17.73,0C39.17,59.13,43.57,61.19,45.59,63.56Z"/><path class="cls-1" d="M9.77,34.34A16.44,16.44,0,1,1,26.13,50.87,16.39,16.39,0,0,1,9.77,34.34Z"/><path class="cls-1" d="M157.8,34.42A16.44,16.44,0,1,1,141.38,18,16.43,16.43,0,0,1,157.8,34.42Z"/></g></g></svg>