<svg xmlns="http://www.w3.org/2000/svg" viewBox="0 0 159.4 128.22"><defs><style>.cls-1{fill:none;stroke:#f2f2f2;stroke-miterlimit:10;stroke-width:3px;}</style></defs><title>Governance</title><g id="Слой_2" data-name="Слой 2"><g id="Слой_1-2" data-name="Слой 1"><path class="cls-1" d="M142.1,17.36H56.34v12c-.67-.3-1.11-.49-1.55-.71a29.12,29.12,0,0,0-13-3.53c-.62,0-1.28.05-1.27-.91,0-3.95-.08-7.91.13-11.85A12,12,0,0,1,53.17,1.5c13.71.13,27.42,0,41.13,0,16.9,0,33.81,0,50.71,0,4.77,0,8.51,1.71,11.07,5.78a11.42,11.42,0,0,1,1.81,6.22q0,38.85,0,77.71a11.81,11.81,0,0,1-11.81,12c-19.52.07-39,0-58.56,0-.75,0-1.24-.14-1.48-1a30.15,30.15,0,0,0-9-14.32c-.06-.06-.07-.17-.18-.43H142.1Z"/><path class="cls-1" d="M40.55,126.69c-9,0-18-.09-27,0a11.78,11.78,0,0,1-12-11A24.3,24.3,0,0,1,4,103.67C9.05,93.23,17.48,87.94,29,87.56a6.29,6.29,0,0,1,1.95.37,31.6,31.6,0,0,0,19.1.06c3.4-1,6.81-.24,10.1.73a27.29,27.29,0,0,1,19.52,25.57c.16,7.07-4.82,12.33-11.88,12.38C58.74,126.74,49.64,126.69,40.55,126.69Z"/><path class="cls-1" d="M40.67,32.86A23.46,23.46,0,1,1,17.1,56.16,23.39,23.39,0,0,1,40.67,32.86Z"/><path class="cls-1" d="M77.74,54.74,71.4,61.2c.12-1.14.17-1.91.27-2.68a26.63,26.63,0,0,0-1.4-11.37,1.62,1.62,0,0,1,.48-2c1.07-.95,2-2,3.09-3a5.68,5.68,0,0,1,7.79,0c1.48,1.27,2.81,2.71,4.19,4.09,3.13,3.12,6.25,6.26,9.24,9.26l13.42-13.43c-1.53-1.5-3.28-3.17-5-4.89A7.77,7.77,0,0,1,101.9,35a4.29,4.29,0,0,1,3.24-6,9.47,9.47,0,0,1,1.84-.16h19.7c2.8,0,3.86,1.08,3.86,3.9,0,6.66,0,13.32,0,20,0,2.89-1.37,4.68-3.78,5.11a4.52,4.52,0,0,1-4.09-1.54c-1.49-1.47-3-3-4.45-4.44-.36-.36-.75-.7-1.47-1.38a8.73,8.73,0,0,1-.92,1.42Q108,59.84,100.08,67.7c-3.12,3.12-6.34,3.14-9.45,0C86.4,63.49,82.19,59.22,77.74,54.74Z"/></g></g></svg>