<svg xmlns="http://www.w3.org/2000/svg" viewBox="0 0 426.89 164.97"><defs><style>.cls-1{fill:#fff;}.cls-2{fill:#522651;}</style></defs><title>fidus</title><g id="Слой_2" data-name="Слой 2"><g id="Слой_1-2" data-name="Слой 1"><path class="cls-1" d="M0,165V0H426.89V165Zm426.33-.7V.8H.41V164.27Z"/><path class="cls-2" d="M426.33,164.27H.41V.8H426.33ZM25.3,25.7H401.22V139.47H296.14v5.45H402.55a4.41,4.41,0,0,0,4.32-4.37V24.4a4.22,4.22,0,0,0-4.27-4.34H24a4.33,4.33,0,0,0-4.32,4.35V140.56a4.52,4.52,0,0,0,4.35,4.36H136.65c.6,0,1.2,0,1.82-.08v-5.42H25.3ZM250.48,53.15a7.13,7.13,0,0,0-.13.94c0,9.35-.23,18.71.06,28.05.28,8.65,4,15.48,12.14,19.31a29.12,29.12,0,0,0,14.09,2.38c13.33-.67,22-9.18,22.37-22.48.28-9.12.09-18.24.09-27.37a3.76,3.76,0,0,0-.15-.82h-9.19v2.11c0,8.38,0,16.77,0,25.15,0,6.42-3.49,11-9.59,12.57a21.93,21.93,0,0,1-12.23-.33,10.85,10.85,0,0,1-7.88-8.73,22.08,22.08,0,0,1-.37-4.22c0-8.16,0-16.32,0-24.48V53.15Zm86,35.71c0,2.86,1.81,6.78,4.15,9.24,6.18,6.49,19,7.25,26.51,1.79C373.91,95,375.09,83,366.44,78a42.68,42.68,0,0,0-5.16-2.56c-3-1.22-6.19-2.2-9.23-3.42a12.81,12.81,0,0,1-3.6-2.17,3.62,3.62,0,0,1,.18-5.64c3.91-3.13,10.86-1.59,13,2.85.19.39.62.93.95.94,3.15.07,6.3,0,9.46,0A15.92,15.92,0,0,0,367,58.15c-5.69-5-12.3-5.59-19.29-3.78C341.63,56,337.6,60.48,337.09,66c-.55,6.16,2.05,10.51,8.31,13.38,2.76,1.27,5.72,2.12,8.54,3.27a52.8,52.8,0,0,1,6.28,2.94,4.18,4.18,0,0,1,2.19,4.44,4.13,4.13,0,0,1-3.55,3.66,30,30,0,0,1-7.21.12,5.71,5.71,0,0,1-4.88-4c-.15-.4-.62-.94-.95-1C342.72,88.84,339.62,88.86,336.52,88.86ZM173.1,63.45c.69,0,1.3.09,1.91.09,5.83,0,11.67,0,17.51,0,5.35.07,9.34,2.41,11.53,7.43a20,20,0,0,1,1.34,9.16c-.43,8.76-5.26,13.38-14,13.38H174.93c-.6,0-1.2.06-1.78.08v9.09c7.73,0,15.35.45,22.89-.11,8.38-.63,14.48-5.13,17.68-13.12a30.76,30.76,0,0,0,2-11.64c-.06-14.15-9.6-23.72-23.72-23.75-5.67,0-11.34,0-17,0H173.1ZM86,54.15c-.69,0-1.24-.07-1.8-.07-9.69,0-19.38,0-29.07,0-1.68,0-2.06.51-2.06,2.11.06,14.91,0,29.81,0,44.72,0,.61.06,1.21.09,1.89H63.37V82.93h2.25c5.56,0,11.11,0,16.67,0,.54,0,1.55-.45,1.56-.72.11-2.86.07-5.73.07-8.75H63.44V63.5H86Zm37.55-.07V102.7h10c0-.53.08-.92.08-1.31V55.69c0-.17.07-.4,0-.5-.34-.39-.71-1-1.08-1.06C129.66,54,126.72,54.08,123.57,54.08ZM278,138.56a14.82,14.82,0,0,1,0,2.42,1.49,1.49,0,0,1-.82,1,3.67,3.67,0,0,1-4.89-2.63,20,20,0,0,1-.18-6c.3-2.39,1.73-3.44,4.13-3.35a35.27,35.27,0,0,1,4.35.67c1.11-2.78.92-3.13-2.09-3.65-.17,0-.33-.07-.5-.09-5.7-.73-9.36,2-9.86,7.38a19.24,19.24,0,0,0,0,3.56c.35,3.77,2.1,6.2,4.95,7a12.75,12.75,0,0,0,7.34-.37c.41-.13,1-.61,1-.94.08-2.68,0-5.37,0-8.08h-6.12C275,138.24,275.06,138.33,278,138.56Zm-28.52,6.14c3,.68,3,.65,3.79-1.8.19-.6.35-1.2.59-1.77.12-.29.36-.75.56-.76a16.94,16.94,0,0,1,4.56.06c.56.13.92,1.52,1.2,2.39.86,2.59,1.17,2.76,3.95,1.81a9.06,9.06,0,0,0-.23-1.13c-1.53-5-3.11-10.05-4.6-15.09a1.58,1.58,0,0,0-1.95-1.33c-1.1.12-2.33-.4-2.82,1.34-.82,2.93-1.92,5.8-2.83,8.71C250.88,139.6,250.2,142.1,249.44,144.7Zm-53.53-10.54a31.19,31.19,0,0,1,3.1-.43c2.7-.09,3.17.54,2.48,3.24-2.6.28-5.8-.65-7,2.92a4,4,0,0,0,1.12,4.5c2.23,1.44,4.42,1,6.54-.38,1.18,1.3,2.65,1.76,4.09.79.63-.43.75-1.61,1.16-2.55-2.61-.36-2.61-.36-2.62-2.54s-.06-4.09,0-6.12a1.88,1.88,0,0,0-1.49-2.12,13.89,13.89,0,0,0-7.83-.09ZM189,144.86c0-3.53.17-7,0-10.41-.2-3-3-4.44-6.05-3.25-.52.21-1,.49-1.5.74-.94-1.83-2.21-.7-3.36-.56v13.45h3.07c0-3.05,0-6,0-8.93,0-1.59.75-2.16,2.66-2.19,1.45,0,2,.64,2,2.07-.07,1.64,0,3.29,0,4.93v4.15Zm33.71,0c0-3.42.14-6.7,0-10s-2.3-4.68-5.5-3.91a13,13,0,0,0-2.15.92c-.86-1.77-2.14-.65-3.34-.59v13.49h3.1c0-3.09,0-6,0-9,0-.51.17-1.39.45-1.47a6.82,6.82,0,0,1,3.22-.41c.45.09.87,1.42.9,2.21.1,2.86,0,5.74,0,8.69ZM156,130.23h6.57l.26-3.14c-3.13,0-6,.06-8.89,0-1.23,0-1.53.44-1.51,1.58.05,3.91,0,7.82,0,11.73v4.46H156v-7.07h5.24c.66-2.93.55-3.08-2.17-3.08H156Zm72.37.93c-.33,2.62-.18,2.79,2.33,2.79,1,0,2.1,0,3.58,0-2,2.57-3.64,4.85-5.46,7a3.62,3.62,0,0,0-.75,3.91h10.43c-.14-1-.26-1.77-.41-2.71h-6.52c1.95-2.42,3.61-4.62,5.43-6.67a3.87,3.87,0,0,0,.89-4.29Zm-57,13.7V133.51c0-2.74-.18-2.87-3-2.22v13.57Zm.19-17.27c0-1.19-.47-2-1.75-2a1.67,1.67,0,0,0-1.77,1.82c0,1.19.47,1.94,1.76,1.93S171.53,128.74,171.56,127.59Z"/><path class="cls-1" d="M25.3,25.7V139.41H138.47v5.42c-.62,0-1.22.08-1.82.08H24.07a4.52,4.52,0,0,1-4.35-4.36V24.41A4.33,4.33,0,0,1,24,20.06H402.6a4.22,4.22,0,0,1,4.27,4.34V140.55a4.41,4.41,0,0,1-4.32,4.37H296.14v-5.45H401.22V25.7Z"/><path class="cls-1" d="M250.48,53.15h9.18v2.08c0,8.16,0,16.32,0,24.48a22.08,22.08,0,0,0,.37,4.22,10.85,10.85,0,0,0,7.88,8.73,21.93,21.93,0,0,0,12.23.33c6.1-1.55,9.57-6.15,9.59-12.57,0-8.38,0-16.77,0-25.15V53.16H299a3.76,3.76,0,0,1,.15.82c0,9.13.19,18.25-.09,27.37-.41,13.3-9,21.81-22.37,22.48a29.12,29.12,0,0,1-14.09-2.38c-8.17-3.83-11.86-10.66-12.14-19.31-.29-9.34-.06-18.7-.06-28A7.13,7.13,0,0,1,250.48,53.15Z"/><path class="cls-1" d="M336.52,88.86c3.1,0,6.2,0,9.3,0,.33,0,.8.55.95,1a5.71,5.71,0,0,0,4.88,4,30,30,0,0,0,7.21-.12,4.13,4.13,0,0,0,3.55-3.66,4.18,4.18,0,0,0-2.19-4.44,52.8,52.8,0,0,0-6.28-2.94c-2.82-1.15-5.78-2-8.54-3.27-6.26-2.87-8.86-7.22-8.31-13.38.51-5.54,4.54-10.07,10.63-11.65,7-1.81,13.6-1.22,19.29,3.78a15.92,15.92,0,0,1,5.07,9.92c-3.16,0-6.31,0-9.46,0-.33,0-.76-.55-.95-.94-2.18-4.44-9.13-6-13-2.85a3.62,3.62,0,0,0-.18,5.64,12.81,12.81,0,0,0,3.6,2.17c3,1.22,6.18,2.2,9.23,3.42A42.68,42.68,0,0,1,366.44,78c8.65,5,7.47,17,.74,21.86-7.53,5.46-20.33,4.7-26.51-1.79C338.33,95.64,336.53,91.72,336.52,88.86Z"/><path class="cls-1" d="M173.1,63.45V54.07H175c5.66,0,11.33,0,17,0,14.12,0,23.66,9.6,23.72,23.75a30.76,30.76,0,0,1-2,11.64c-3.2,8-9.3,12.49-17.68,13.12-7.54.56-15.16.11-22.89.11V93.61c.58,0,1.18-.08,1.78-.08h16.49c8.71,0,13.54-4.62,14-13.38A20,20,0,0,0,204.05,71c-2.19-5-6.18-7.36-11.53-7.43-5.84-.07-11.68,0-17.51,0C174.4,63.54,173.79,63.49,173.1,63.45Z"/><path class="cls-1" d="M86,54.15V63.5H63.44v9.93H83.92c0,3,0,5.89-.07,8.75,0,.27-1,.71-1.56.72-5.56,0-11.11,0-16.67,0H63.37v19.82H53.22c0-.68-.09-1.28-.09-1.89,0-14.91,0-29.81,0-44.72,0-1.6.38-2.12,2.06-2.11,9.69.08,19.38,0,29.07,0C84.78,54.08,85.33,54.12,86,54.15Z"/><path class="cls-1" d="M123.57,54.08c3.15,0,6.09,0,9,.05.37,0,.74.67,1.08,1.06.08.1,0,.33,0,.5v45.7c0,.39,0,.78-.08,1.31h-10Z"/><path class="cls-1" d="M278,138.56c-2.9-.23-3-.32-2.67-3.08h6.12c0,2.71,0,5.4,0,8.08,0,.33-.6.81-1,.94a12.75,12.75,0,0,1-7.34.37c-2.85-.81-4.6-3.24-4.95-7a19.24,19.24,0,0,1,0-3.56c.5-5.4,4.16-8.11,9.86-7.38.17,0,.33.06.5.09,3,.52,3.2.87,2.09,3.65a35.27,35.27,0,0,0-4.35-.67c-2.4-.09-3.83,1-4.13,3.35a20,20,0,0,0,.18,6A3.67,3.67,0,0,0,277.1,142a1.49,1.49,0,0,0,.82-1A14.82,14.82,0,0,0,278,138.56Z"/><path class="cls-1" d="M249.44,144.7c.76-2.6,1.44-5.1,2.22-7.57.91-2.91,2-5.78,2.83-8.71.49-1.74,1.72-1.22,2.82-1.34a1.58,1.58,0,0,1,1.95,1.33c1.49,5,3.07,10.06,4.6,15.09a9.06,9.06,0,0,1,.23,1.13c-2.78,1-3.09.78-3.95-1.81-.28-.87-.64-2.26-1.2-2.39a16.94,16.94,0,0,0-4.56-.06c-.2,0-.44.47-.56.76-.24.57-.4,1.17-.59,1.77C252.46,145.35,252.41,145.38,249.44,144.7Zm5.51-7.44h3.58c-.6-1.88-1.15-3.63-1.83-5.77C256,133.69,255.49,135.46,255,137.26Z"/><path class="cls-1" d="M195.91,134.16l-.42-2.78a13.89,13.89,0,0,1,7.83.09,1.88,1.88,0,0,1,1.49,2.12c-.09,2,0,4.08,0,6.12s0,2.18,2.62,2.54c-.41.94-.53,2.12-1.16,2.55-1.44,1-2.91.51-4.09-.79-2.12,1.38-4.31,1.82-6.54.38a4,4,0,0,1-1.12-4.5c1.2-3.57,4.4-2.64,7-2.92.69-2.7.22-3.33-2.48-3.24A31.19,31.19,0,0,0,195.91,134.16Zm6.08,5.37-.57-.58a26.76,26.76,0,0,0-3.68,1.31,2.92,2.92,0,0,0,.26,1.9,4.63,4.63,0,0,0,3,0C201.64,141.75,201.69,140.43,202,139.53Z"/><path class="cls-1" d="M189,144.86h-3.27v-4.15c0-1.64-.05-3.29,0-4.93.06-1.43-.53-2.1-2-2.07-1.91,0-2.65.6-2.66,2.19,0,2.94,0,5.88,0,8.93H178V131.38c1.15-.14,2.42-1.27,3.36.56.5-.25,1-.53,1.5-.74,3-1.19,5.85.21,6.05,3.25C189.15,137.88,189,141.33,189,144.86Z"/><path class="cls-1" d="M222.69,144.87h-3.3c0-3,.06-5.83,0-8.69,0-.79-.45-2.12-.9-2.21a6.82,6.82,0,0,0-3.22.41c-.28.08-.44,1-.45,1.47,0,2.94,0,5.88,0,9h-3.1V131.33c1.2-.06,2.48-1.18,3.34.59a13,13,0,0,1,2.15-.92c3.2-.77,5.32.65,5.5,3.91S222.69,141.45,222.69,144.87Z"/><path class="cls-1" d="M156,130.23v4.46h3.06c2.72,0,2.83.15,2.17,3.08H156v7.07h-3.55v-4.46c0-3.91,0-7.82,0-11.73,0-1.14.28-1.62,1.51-1.58,2.88.08,5.76,0,8.89,0l-.26,3.14Z"/><path class="cls-1" d="M228.38,131.16h9.52a3.87,3.87,0,0,1-.89,4.29c-1.82,2.05-3.48,4.25-5.43,6.67h6.52c.15.94.27,1.75.41,2.71H228.08a3.62,3.62,0,0,1,.75-3.91c1.82-2.12,3.46-4.4,5.46-7-1.48,0-2.53,0-3.58,0C228.2,134,228.05,133.78,228.38,131.16Z"/><path class="cls-1" d="M171.37,144.86h-3V131.29c2.84-.65,3-.52,3,2.22Z"/><path class="cls-1" d="M171.56,127.59c0,1.15-.57,1.78-1.76,1.78s-1.8-.74-1.76-1.93a1.67,1.67,0,0,1,1.77-1.82C171.09,125.6,171.57,126.4,171.56,127.59Z"/><path class="cls-2" d="M255,137.26c.54-1.8,1.08-3.57,1.75-5.77.68,2.14,1.23,3.89,1.83,5.77Z"/><path class="cls-2" d="M201.89,139.55a1.39,1.39,0,0,1,0,.54,6.34,6.34,0,0,1-.36,1.22,2.55,2.55,0,0,1-.45.76c-.65.67-1.87.38-2.67.21a1,1,0,0,1-.38-.15.8.8,0,0,1-.29-.5,2.22,2.22,0,0,1-.08-1c.13-.59.8-.74,1.29-.93s1.3-.44,2-.63A.69.69,0,0,1,201.89,139.55Z"/></g></g></svg>