<svg xmlns="http://www.w3.org/2000/svg" viewBox="0 0 642.55 254.16"><defs><style>.cls-1,.cls-2{fill:none;stroke:#fff;stroke-miterlimit:10;}.cls-1{stroke-width:0.85px;}.cls-2{stroke-width:1.54px;}.cls-3{fill:#fff;}</style></defs><title>Chart 2</title><g id="Слой_2" data-name="Слой 2"><g id="Слой_1-2" data-name="Слой 1"><line class="cls-1" x1="318.4" y1="124.52" x2="318.4" y2="106.25"/><line class="cls-1" x1="218.94" y1="215.45" x2="218.94" y2="197.18"/><line class="cls-1" x1="517.32" y1="103.7" x2="517.32" y2="85.43"/><line class="cls-1" x1="417.86" y1="200.16" x2="417.86" y2="181.9"/><polyline class="cls-2" points="634.88 7.74 634.31 8.32 527.63 116.01"/><line class="cls-2" x1="405.88" y1="217.59" x2="328.7" y2="158.08"/><line class="cls-2" x1="205.55" y1="240.11" y2="240.11"/><line class="cls-2" x1="308.78" y1="158.84" x2="228.84" y2="231.16"/><line class="cls-2" x1="508.96" y1="134.85" x2="428.76" y2="215.81"/><polygon class="cls-3" points="642.55 0 636.2 15.32 634.31 8.32 627.29 6.49 642.55 0"/><ellipse class="cls-2" cx="218.94" cy="240.1" rx="13.39" ry="13.29"/><ellipse class="cls-2" cx="318.4" cy="149.59" rx="13.39" ry="13.29"/><ellipse class="cls-2" cx="417.86" cy="223.51" rx="13.39" ry="13.29"/><ellipse class="cls-2" cx="517.32" cy="124.48" rx="13.39" ry="13.29"/><path class="cls-3" d="M303.26,90.42l.64-6.37h6.59v1h-5.66l-.46,4.42a4.31,4.31,0,0,1,2.48-.72,3.68,3.68,0,0,1,2.84,1.15A4.34,4.34,0,0,1,310.75,93a4.59,4.59,0,0,1-1,3.2,3.73,3.73,0,0,1-2.91,1.14,4,4,0,0,1-2.79-1,3.9,3.9,0,0,1-1.22-2.67h1a3.12,3.12,0,0,0,.92,2,2.92,2.92,0,0,0,2.05.69,2.57,2.57,0,0,0,2.13-.89,3.94,3.94,0,0,0,.72-2.54,3.39,3.39,0,0,0-.8-2.34,2.81,2.81,0,0,0-2.2-.91,4.15,4.15,0,0,0-1.34.2,3.67,3.67,0,0,0-1.2.75Z"/><path class="cls-3" d="M320.56,87.41a3,3,0,0,1-.59,1.82,3.47,3.47,0,0,1-1.58,1.18,3.93,3.93,0,0,1,1.83,1.25,3.12,3.12,0,0,1,.69,2,3.33,3.33,0,0,1-1.15,2.66,4.5,4.5,0,0,1-3,1,4.55,4.55,0,0,1-3.06-1,3.36,3.36,0,0,1-1.15-2.67,3.23,3.23,0,0,1,.67-2A3.67,3.67,0,0,1,315,90.41a3.36,3.36,0,0,1-1.56-1.18,3,3,0,0,1-.58-1.82,3.32,3.32,0,0,1,1-2.58,4,4,0,0,1,2.8-1,4,4,0,0,1,2.8,1A3.29,3.29,0,0,1,320.56,87.41Zm-.74,6.26a2.55,2.55,0,0,0-.88-2,3.59,3.59,0,0,0-4.48,0,2.78,2.78,0,0,0,0,4,3.39,3.39,0,0,0,2.29.74,3.33,3.33,0,0,0,2.25-.74A2.48,2.48,0,0,0,319.82,93.67Zm-.34-6.26a2.48,2.48,0,0,0-.79-1.88,3.06,3.06,0,0,0-4,0,2.48,2.48,0,0,0-.76,1.9,2.4,2.4,0,0,0,.76,1.85,2.89,2.89,0,0,0,2,.7,2.83,2.83,0,0,0,2-.71A2.36,2.36,0,0,0,319.48,87.41Z"/><path class="cls-3" d="M322.82,86.56a2.74,2.74,0,0,1,.72-1.94,2.64,2.64,0,0,1,3.71,0,2.81,2.81,0,0,1,.72,2v.64a2.68,2.68,0,0,1-.71,1.92,2.62,2.62,0,0,1-3.7,0,2.68,2.68,0,0,1-.74-2Zm.87.69a2,2,0,0,0,.47,1.38,1.57,1.57,0,0,0,1.25.54,1.52,1.52,0,0,0,1.23-.55,2.13,2.13,0,0,0,.46-1.41v-.65a2.09,2.09,0,0,0-.47-1.39,1.67,1.67,0,0,0-2.46,0,2.09,2.09,0,0,0-.48,1.44ZM325.76,96l-.68-.43,6.43-10.23.68.44Zm3.69-2.12a2.66,2.66,0,0,1,.73-1.93,2.44,2.44,0,0,1,1.84-.77,2.5,2.5,0,0,1,1.85.76,2.76,2.76,0,0,1,.74,2v.64a2.66,2.66,0,0,1-.73,1.93,2.42,2.42,0,0,1-1.84.76,2.46,2.46,0,0,1-1.85-.76,2.71,2.71,0,0,1-.74-2Zm.87.7a2,2,0,0,0,.47,1.38,1.56,1.56,0,0,0,1.25.54,1.52,1.52,0,0,0,1.23-.54,2.14,2.14,0,0,0,.46-1.43v-.66a2,2,0,0,0-.46-1.39A1.59,1.59,0,0,0,332,92a1.54,1.54,0,0,0-1.23.53,2.08,2.08,0,0,0-.47,1.42Z"/><path class="cls-3" d="M211.31,188.7h-8.25v-.83l4.52-5.08a12.12,12.12,0,0,0,1.55-2.12,3.53,3.53,0,0,0,.44-1.63,2.63,2.63,0,0,0-.74-2,2.76,2.76,0,0,0-2-.72,2.85,2.85,0,0,0-2.14.84,3,3,0,0,0-.82,2.19h-1.08a4.16,4.16,0,0,1,.5-2A3.62,3.62,0,0,1,204.7,176a4.21,4.21,0,0,1,2.11-.52,4,4,0,0,1,2.83.94,3.34,3.34,0,0,1,1,2.57,4.41,4.41,0,0,1-.57,2,15.49,15.49,0,0,1-2,2.71l-3.67,4.12h6.92Z"/><path class="cls-3" d="M221.59,188.7h-8.26v-.83l4.52-5.08a11.76,11.76,0,0,0,1.56-2.12,3.52,3.52,0,0,0,.43-1.63,2.63,2.63,0,0,0-.73-2,2.76,2.76,0,0,0-2-.72,2.85,2.85,0,0,0-2.15.84,3,3,0,0,0-.82,2.19H213a4.06,4.06,0,0,1,.51-2A3.59,3.59,0,0,1,215,176a4.24,4.24,0,0,1,2.12-.52,4,4,0,0,1,2.83.94,3.34,3.34,0,0,1,1,2.57,4.43,4.43,0,0,1-.58,2,15.34,15.34,0,0,1-2,2.71l-3.68,4.12h6.93Z"/><path class="cls-3" d="M223.35,178.14a2.69,2.69,0,0,1,.73-1.94,2.61,2.61,0,0,1,3.7,0,2.74,2.74,0,0,1,.73,2v.64a2.68,2.68,0,0,1-.72,1.91,2.38,2.38,0,0,1-1.84.77,2.53,2.53,0,0,1-1.86-.75,2.74,2.74,0,0,1-.74-2Zm.88.68a2,2,0,0,0,.47,1.38,1.69,1.69,0,0,0,2.48,0,2.17,2.17,0,0,0,.45-1.41v-.66a2,2,0,0,0-.47-1.38,1.65,1.65,0,0,0-2.45,0,2.09,2.09,0,0,0-.48,1.44Zm2.06,8.79-.68-.43L232.05,177l.68.43Zm3.7-2.12a2.66,2.66,0,0,1,.73-1.93,2.42,2.42,0,0,1,1.84-.76,2.46,2.46,0,0,1,1.85.76,2.74,2.74,0,0,1,.74,2v.63a2.69,2.69,0,0,1-.73,1.93,2.44,2.44,0,0,1-1.84.77,2.48,2.48,0,0,1-1.86-.76,2.74,2.74,0,0,1-.73-2Zm.87.7a2.06,2.06,0,0,0,.46,1.39,1.58,1.58,0,0,0,1.26.54,1.54,1.54,0,0,0,1.23-.55,2.12,2.12,0,0,0,.46-1.43v-.65a2,2,0,0,0-.47-1.39,1.7,1.7,0,0,0-2.47,0,2,2,0,0,0-.47,1.42Z"/><path class="cls-3" d="M509.21,64.4a3,3,0,0,1-.6,1.82A3.51,3.51,0,0,1,507,67.4a3.71,3.71,0,0,1,1.82,1.25,3.09,3.09,0,0,1,.69,2,3.3,3.3,0,0,1-1.15,2.66,4.49,4.49,0,0,1-3,1,4.54,4.54,0,0,1-3.05-1,3.31,3.31,0,0,1-1.15-2.67,3.24,3.24,0,0,1,.66-2,3.64,3.64,0,0,1,1.81-1.25,3.35,3.35,0,0,1-1.55-1.18,3,3,0,0,1-.58-1.82,3.33,3.33,0,0,1,1.05-2.59,4.53,4.53,0,0,1,5.59,0A3.32,3.32,0,0,1,509.21,64.4Zm-.74,6.25a2.6,2.6,0,0,0-.88-2,3.28,3.28,0,0,0-2.25-.78,3.2,3.2,0,0,0-2.23.77,2.57,2.57,0,0,0-.87,2,2.53,2.53,0,0,0,.84,2,3.34,3.34,0,0,0,2.28.74,3.3,3.3,0,0,0,2.25-.74A2.49,2.49,0,0,0,508.47,70.65Zm-.35-6.26a2.5,2.5,0,0,0-.78-1.88,3.06,3.06,0,0,0-4,0,2.49,2.49,0,0,0-.77,1.9,2.41,2.41,0,0,0,.77,1.85,2.82,2.82,0,0,0,2,.7,2.86,2.86,0,0,0,2-.71A2.38,2.38,0,0,0,508.12,64.39Z"/><path class="cls-3" d="M519.83,61.65,514.2,74.11h-1.13l5.6-12.17h-7.5V61h8.66Z"/><path class="cls-3" d="M521.73,63.54a2.71,2.71,0,0,1,.73-1.93,2.62,2.62,0,0,1,3.71,0,2.78,2.78,0,0,1,.72,2v.64a2.68,2.68,0,0,1-.72,1.91,2.41,2.41,0,0,1-1.84.77,2.49,2.49,0,0,1-1.85-.75,2.72,2.72,0,0,1-.75-2Zm.88.69a2,2,0,0,0,.47,1.38,1.57,1.57,0,0,0,1.25.54,1.51,1.51,0,0,0,1.23-.55,2.12,2.12,0,0,0,.46-1.4v-.66a2,2,0,0,0-.47-1.38,1.55,1.55,0,0,0-1.24-.55,1.54,1.54,0,0,0-1.22.54,2.09,2.09,0,0,0-.48,1.44ZM524.68,73l-.68-.43,6.43-10.22.68.43Zm3.69-2.12A2.66,2.66,0,0,1,529.1,69a2.42,2.42,0,0,1,1.84-.76,2.49,2.49,0,0,1,1.85.75,2.77,2.77,0,0,1,.74,2v.64a2.66,2.66,0,0,1-.73,1.93,2.44,2.44,0,0,1-1.84.77,2.5,2.5,0,0,1-1.85-.76,2.74,2.74,0,0,1-.74-2Zm.87.7A2,2,0,0,0,529.7,73a1.59,1.59,0,0,0,1.26.54,1.52,1.52,0,0,0,1.23-.54,2.12,2.12,0,0,0,.46-1.43V70.9a2,2,0,0,0-.47-1.4,1.72,1.72,0,0,0-2.47,0,2.08,2.08,0,0,0-.47,1.42Z"/><path class="cls-3" d="M404.39,163.45h1.12a3.8,3.8,0,0,0,1.63-.33,2.4,2.4,0,0,0,1.06-.89,2.34,2.34,0,0,0,.37-1.32,2.65,2.65,0,0,0-.72-2,2.79,2.79,0,0,0-2.05-.71,3,3,0,0,0-2.08.74,2.54,2.54,0,0,0-.81,2h-1.08a3.51,3.51,0,0,1,.51-1.86,3.44,3.44,0,0,1,1.43-1.29,4.42,4.42,0,0,1,2-.46,3.91,3.91,0,0,1,2.82,1,3.46,3.46,0,0,1,1,2.66,2.77,2.77,0,0,1-.61,1.73,3.57,3.57,0,0,1-1.65,1.19,3.43,3.43,0,0,1,1.87,1.18,3.17,3.17,0,0,1,.63,2,3.52,3.52,0,0,1-1.1,2.7,4.19,4.19,0,0,1-2.95,1,5,5,0,0,1-2.16-.47,3.47,3.47,0,0,1-2.06-3.26h1.08a2.61,2.61,0,0,0,.88,2,3.25,3.25,0,0,0,2.26.79,3.1,3.1,0,0,0,2.18-.72,2.65,2.65,0,0,0,.78-2.07,2.44,2.44,0,0,0-.84-2,3.9,3.9,0,0,0-2.5-.69h-1.08Z"/><path class="cls-3" d="M418.91,166.36h2v.91h-2v3.31h-1.09v-3.31h-6.2v-.61l6.1-9.16h1.19Zm-6,0h4.87v-7.47l-.48.83Z"/><path class="cls-3" d="M422.27,160a2.71,2.71,0,0,1,.73-1.93,2.43,2.43,0,0,1,1.85-.77,2.4,2.4,0,0,1,1.85.77,2.74,2.74,0,0,1,.73,2v.63a2.69,2.69,0,0,1-.72,1.92,2.41,2.41,0,0,1-1.84.77,2.49,2.49,0,0,1-1.85-.75,2.72,2.72,0,0,1-.75-2Zm.88.69a2,2,0,0,0,.47,1.38,1.57,1.57,0,0,0,1.25.54,1.52,1.52,0,0,0,1.23-.55,2.13,2.13,0,0,0,.45-1.41V160a2,2,0,0,0-.47-1.38,1.52,1.52,0,0,0-1.23-.55,1.54,1.54,0,0,0-1.22.54,2.09,2.09,0,0,0-.48,1.44Zm2.07,8.79-.68-.43L431,158.84l.68.43Zm3.69-2.12a2.66,2.66,0,0,1,.73-1.93,2.43,2.43,0,0,1,1.84-.77,2.5,2.5,0,0,1,1.85.76,2.77,2.77,0,0,1,.74,2v.64a2.66,2.66,0,0,1-.73,1.93,2.44,2.44,0,0,1-1.84.76,2.49,2.49,0,0,1-1.85-.75,2.7,2.7,0,0,1-.74-2Zm.87.7a2,2,0,0,0,.46,1.38,1.58,1.58,0,0,0,1.26.54,1.52,1.52,0,0,0,1.23-.54,2.12,2.12,0,0,0,.46-1.43v-.66a2,2,0,0,0-.47-1.39,1.57,1.57,0,0,0-1.24-.52,1.54,1.54,0,0,0-1.23.53,2,2,0,0,0-.47,1.42Z"/></g></g></svg>