<svg xmlns="http://www.w3.org/2000/svg" viewBox="0 0 26.12 26.13"><defs><style>.cls-1{fill:#214b83;}</style></defs><title>in Podval</title><g id="Слой_2" data-name="Слой 2"><g id="Слой_1-2" data-name="Слой 1"><path class="cls-1" d="M9.25,8.68h4.84c.26,0,.36.07.35.35,0,.65,0,1.31,0,2.05.09-.11.15-.16.19-.21a5.49,5.49,0,0,1,4.14-2.57,7.8,7.8,0,0,1,3.88.47,4.87,4.87,0,0,1,2.88,3.17,9.27,9.27,0,0,1,.54,3c0,3.61,0,7.22.05,10.83,0,.19,0,.33-.26.33h-5l-.17,0c0-.14,0-.29,0-.43,0-2.92,0-5.84,0-8.76a8.13,8.13,0,0,0-.27-2.08A2.36,2.36,0,0,0,17.77,13a3.48,3.48,0,0,0-.64.07,2.64,2.64,0,0,0-2.28,2.37,13.77,13.77,0,0,0-.2,2.31c0,2.62,0,5.24,0,7.87v.46H9.25Z"/><path class="cls-1" d="M5.85,26.1l-.43,0H.85c-.31,0-.43-.06-.43-.41q0-8.32,0-16.65c0-.32.1-.4.41-.4,1.54,0,3.09,0,4.63,0,.32,0,.39.1.39.41v17Z"/><path class="cls-1" d="M6.28,3.19A3.17,3.17,0,0,1,3,6.31,3.18,3.18,0,0,1,0,3.09a3.14,3.14,0,0,1,6.28.1Z"/></g></g></svg>