<svg xmlns="http://www.w3.org/2000/svg" viewBox="0 0 191.23 44.4"><defs><style>.cls-1,.cls-2{fill:#2a5288;}.cls-1{fill-rule:evenodd;}</style></defs><title>Ресурс 30</title><g id="Слой_2" data-name="Слой 2"><g id="Слой_1-2" data-name="Слой 1"><rect x="53.87" y="37.38" width="19.77" height="0.8"/><rect x="171.46" y="37.38" width="19.77" height="0.8"/><path d="M166.32,35.29v5.65h.82V35.29H169v-.68h-4.63v.68Zm-7.56-.68v6.33h.77V37.63c0-.33,0-.67,0-1s-.05-.66-.08-1h0l.69,1.3,2.3,4h.83V34.61h-.77v3.28c0,.33,0,.67,0,1s.05.68.07,1h0l-.69-1.31-2.28-4Zm-5.08,0v6.33h3.75v-.68h-3V38h2.4v-.68h-2.4v-2h2.85v-.68Zm-7,0v6.33h.74V37.46c0-.28,0-.59,0-.94s-.05-.65-.07-.93h0l.5,1.4,1.22,3.32h.46L150.74,37l.51-1.4h0c0,.28-.05.59-.07.93s0,.66,0,.94v3.48h.76V34.61H151L149.78,38l-.44,1.29h0L148.84,38l-1.23-3.4Zm-5.09,0v6.33h3.74v-.68h-2.94V38h2.4v-.68h-2.4v-2h2.85v-.68Zm-6.33,3.17a4.05,4.05,0,0,0,.22,1.39,3.15,3.15,0,0,0,.59,1,2.47,2.47,0,0,0,.89.64,3.06,3.06,0,0,0,1.15.22,3.09,3.09,0,0,0,1.14-.2,2.49,2.49,0,0,0,.82-.54V37.66H138v.67h1.34V40a1.4,1.4,0,0,1-.5.27,2,2,0,0,1-.64.11,2.13,2.13,0,0,1-.9-.19,1.78,1.78,0,0,1-.66-.52,2.2,2.2,0,0,1-.4-.81,3.66,3.66,0,0,1-.15-1.08,3.76,3.76,0,0,1,.15-1.06,2.39,2.39,0,0,1,.42-.81,2,2,0,0,1,.66-.51,2.05,2.05,0,0,1,.87-.18,1.72,1.72,0,0,1,.8.17,2.06,2.06,0,0,1,.55.42l.45-.51a2.94,2.94,0,0,0-.71-.54,2.29,2.29,0,0,0-1.1-.25,2.81,2.81,0,0,0-1.17.24,2.38,2.38,0,0,0-.92.65,2.93,2.93,0,0,0-.61,1A3.9,3.9,0,0,0,135.25,37.78ZM133.36,39l.6,1.93h.86l-2.14-6.33h-.91l-2.14,6.33h.82l.61-1.93Zm-.2-.64h-1.91l.31-1c.11-.36.23-.71.32-1.07s.21-.7.31-1.07h0c.1.37.21.73.31,1.07s.21.71.33,1.07Zm-8.93-3.76v6.33H125V37.63c0-.33,0-.67,0-1s0-.66-.07-1h0l.68,1.3,2.3,4h.83V34.61H128v3.28c0,.33,0,.67,0,1s.05.68.06,1h0l-.68-1.31-2.29-4ZM121.87,39l.59,1.93h.86l-2.14-6.33h-.9l-2.15,6.33H119l.61-1.93Zm-.2-.64h-1.91l.3-1c.12-.36.22-.71.33-1.07s.2-.7.3-1.07h0c.1.37.21.73.31,1.07s.21.71.32,1.07ZM112,34.61v6.33h.75V37.46c0-.28,0-.59,0-.94s0-.65-.06-.93h0l.5,1.4,1.23,3.32h.45L116,37l.51-1.4h0c0,.28,0,.59-.08.93s0,.66,0,.94v3.48h.77V34.61h-.95L115.07,38l-.44,1.29h0L114.12,38l-1.22-3.4Zm-6.63,0v6.33h3.57v-.68h-2.78V34.61ZM103,39l.59,1.93h.86l-2.14-6.33h-.9l-2.14,6.33h.82l.6-1.93Zm-.2-.64h-1.91l.31-1c.11-.36.22-.71.32-1.07s.21-.7.3-1.07h0c.1.37.21.73.31,1.07s.21.71.33,1.07Zm-6.17-3.08v5.65h.81V35.29h1.91v-.68H94.67v.68Zm-3.85-.68v6.33h.8V34.61ZM89,37.78H88V35.26h1a2.35,2.35,0,0,1,1.23.26,1.06,1.06,0,0,1,.4.95,1.17,1.17,0,0,1-.4,1A2,2,0,0,1,89,37.78Zm-1.84-3.17v6.33H88V38.43h1.14a3.58,3.58,0,0,0,.95-.12,2.22,2.22,0,0,0,.74-.36,1.52,1.52,0,0,0,.48-.61,2.08,2.08,0,0,0,.17-.87,2.16,2.16,0,0,0-.17-.88,1.47,1.47,0,0,0-.48-.57,2,2,0,0,0-.74-.31,4.69,4.69,0,0,0-.95-.1ZM84.82,39l.6,1.93h.86l-2.14-6.33h-.91l-2.14,6.33h.82l.6-1.93Zm-.2-.64h-1.9l.3-1c.11-.36.23-.71.33-1.07s.2-.7.3-1.07h0c.09.37.2.73.3,1.07s.21.71.33,1.07Zm-8.57-.59a4.32,4.32,0,0,0,.21,1.39,3,3,0,0,0,.57,1,2.53,2.53,0,0,0,.88.64,2.89,2.89,0,0,0,1.11.22,2.38,2.38,0,0,0,1.08-.24,3,3,0,0,0,.85-.68l-.46-.49a2.26,2.26,0,0,1-.65.52,1.66,1.66,0,0,1-.8.19,1.79,1.79,0,0,1-.81-.19,1.65,1.65,0,0,1-.62-.52,2.77,2.77,0,0,1-.39-.81,3.67,3.67,0,0,1-.14-1.08A3.43,3.43,0,0,1,77,36.7a2.2,2.2,0,0,1,.4-.81,1.92,1.92,0,0,1,.63-.51,1.8,1.8,0,0,1,.82-.18,1.54,1.54,0,0,1,.7.16,2.09,2.09,0,0,1,.56.43l.46-.51a2.74,2.74,0,0,0-.72-.55,2,2,0,0,0-1-.24,2.66,2.66,0,0,0-1.13.24,2.36,2.36,0,0,0-.89.65,3.05,3.05,0,0,0-.59,1A4.15,4.15,0,0,0,76.05,37.78Z"/><path class="cls-1" d="M19,11.28l7.62,10.3c.75-.26,5.58-3.52,6.46-4.16A18.18,18.18,0,0,1,35.21,16c-.63-1.69-5.15-6.82-6.83-8.35L27.07,6.4a7,7,0,0,0-1.4-1.11c-1.16,1-2.58,2.74-4,3.85-.31.24-.59.5-.89.75-.52.42-1.29.94-1.74,1.39M9.6,16.36c1.27,3.83,1.54,5.38,3.41,9,.47.92,1.11,1.93,1.46,2.78a78.68,78.68,0,0,0,9.19-4.83c-.95-2.05-5.45-10-5.84-11.21a16.46,16.46,0,0,0-2,1.19A40.64,40.64,0,0,1,9.6,16.36Zm20.3,9.58,3.16,4.55c1,1.44,2.15,3.12,3.09,4.64a47.66,47.66,0,0,0,5.37-3.7c.07-2.72-2.82-10.1-4.08-11.88a72.81,72.81,0,0,1-5.51,4.91A15.08,15.08,0,0,1,29.9,25.94ZM2.07,17.44a31.1,31.1,0,0,0,.6,7.87C3,26.78,4.26,30.6,5,31.54c1.26-.1,6.07-1.58,6.76-2.19-.65-2-1.28-3-2.07-5.89a49.81,49.81,0,0,1-1.32-6.67c-.92.15-1.87.5-2.91.67A12.31,12.31,0,0,1,2.07,17.44ZM17.78,33a9.28,9.28,0,0,0,.68.87l3,3.23a24.54,24.54,0,0,0,4.43,3.56c.46.21,1.64-.53,2.15-.8a33.82,33.82,0,0,0,4.09-2.26L29.22,33c-.42-.68-2.46-4.37-2.81-4.64a43.93,43.93,0,0,1-4.1,2.43c-.74.41-1.44.71-2.21,1.07ZM7.22,35.19c3.35,4,5.2,5.79,10.37,7.92.95.39,1.08.35,2.53,0a14.51,14.51,0,0,0,2.14-.71l.13-.09c-.79-.6-1.63-1-2.34-1.6a20.12,20.12,0,0,1-2.14-1.91,26.14,26.14,0,0,1-3.53-4.59c-.85.08-2.28.57-3.28.75A30.29,30.29,0,0,1,7.22,35.19ZM48.13,24.9,46.53,27a11.57,11.57,0,0,1-1.91,1.86c-.67-4.36-1.43-7.06-3.81-10.74A8,8,0,0,1,40,16.77,42.63,42.63,0,0,0,43,12.38c.71-1.31,1.94-4,1.39-5.85a11.7,11.7,0,0,1-3,4.05c-.31.32-.5.54-.85.9l-2.9,2.43c-.87-1.23-3-3-3.79-4a3.94,3.94,0,0,0-.68-.63c-1.25-1-1.84-1.68-3.57-2.89-1-.7-2.12-1.4-3.11-2.09a5.94,5.94,0,0,1,.65-.89A11.07,11.07,0,0,0,29,.5c-1.06.78-2.85,2.53-3.77,3-2-.78-3-1.81-6.85-3C16.11-.15,16,0,16,0l-.15.05c1-.16,3.74,1.18,4.58,1.63s1.3.73,2,1.17a14.35,14.35,0,0,1,1.9,1.32l-.38.33a57.74,57.74,0,0,1-6.67,4.26c-.42-.51-.75-1-1.1-1.51L12.75,2.45c.26.86,3.29,6,3.58,7a11.72,11.72,0,0,0-1.81,1A45.3,45.3,0,0,1,9,13.16,39.9,39.9,0,0,1,8.65,8.9c0-1.53.34-3,.35-4.24-1.28,4.7-.53,6.23-.94,8.94a24.19,24.19,0,0,1-5.77,1.94,26.83,26.83,0,0,1,1-4.48A20.19,20.19,0,0,1,4.1,9c.27-.61.71-1.4.9-2-1,1.12-2.29,4.86-2.68,6.22-.2.72-.39,1.77-.63,2.42A2.75,2.75,0,0,1,0,15.39c.15,1,.77,1.32,1.45,1.82-.16,4.85-.56,6.47.88,11.31.31,1.07.88,2.16,1.13,3.12a2.21,2.21,0,0,1-1.37-.47,10.71,10.71,0,0,0,1,1.77c1,1.61,1.86,1.37,2.36,2,2.69,3.47,4.27,5.3,8.79,7.4,2.29,1,6.78,2.26,9.72,2a15.67,15.67,0,0,0,2.43-.43c1.77-.44,2.36.19,5.17-.73.7-.23,1.55-.63,2.1-.78a10.41,10.41,0,0,1-3,.11l2-1.07a20.64,20.64,0,0,1,1.92-1c1.12,1.3,1.83.62,2.55.16,1.38-.86,1.34-.75.73-2.43L40.59,36a8.64,8.64,0,0,1,.92-.8,5.6,5.6,0,0,1-1.34,3.12,16.39,16.39,0,0,0,2.59-2.66C44,34,44,32.58,44.49,32a19,19,0,0,0,3-4.94C47.8,26.35,47.87,25.61,48.13,24.9Z"/><path class="cls-2" d="M183.77,12.05a4.06,4.06,0,0,0-2.88,1.19,3.91,3.91,0,0,0-.82,1.19h7.4a4,4,0,0,0-3.7-2.38M191,17.82h-11a3.56,3.56,0,0,0,.82,1.16,3.81,3.81,0,0,0,1.33.88,4,4,0,0,0,1.55.3,3.93,3.93,0,0,0,2.06-.53L189.36,21a7,7,0,0,1-2.45,1.85,7.64,7.64,0,0,1-6,.09,7.48,7.48,0,0,1-4-4,7.33,7.33,0,0,1-.57-2.88,7.48,7.48,0,0,1,.57-2.91,7.57,7.57,0,0,1,1.6-2.37,7.43,7.43,0,0,1,5.28-2.17,7.24,7.24,0,0,1,2.91.58,7.53,7.53,0,0,1,2.38,1.59,7.71,7.71,0,0,1,1.59,2.37,7.48,7.48,0,0,1,.58,2.91A7.14,7.14,0,0,1,191,17.82Zm-16.27,5.37h-3.39V3.42h3.39ZM166.51,9.06h3.73l-6.55,14.13-.88,1.92a6.23,6.23,0,0,1-2.37,2.73,6.31,6.31,0,0,1-3.5,1h-1.5l.85-3.39h.82a2.84,2.84,0,0,0,1.53-.45,2.78,2.78,0,0,0,1-1.21l.28-.62L153.41,9.06h3.72l4.69,10.11ZM153.83,19.8l.85,3.39h-3.11a4.61,4.61,0,0,1-1.81-.37,4.85,4.85,0,0,1-1.47-1,5,5,0,0,1-1-1.49,4.52,4.52,0,0,1-.36-1.8V6.21l3.39-.85v5.4h2l.84,3.39h-2.82v4.38a1.22,1.22,0,0,0,.37.9,1.16,1.16,0,0,0,.87.37Zm-8.31-2.26a6.39,6.39,0,0,1-.45,2.49,5,5,0,0,1-1.28,1.9,5.65,5.65,0,0,1-2,1.2,7.88,7.88,0,0,1-2.65.43,11,11,0,0,1-4.19-.75,11.51,11.51,0,0,1-3-1.72l2.34-2.34a6.6,6.6,0,0,0,2.09,1.3,5.75,5.75,0,0,0,1.32.37,9.22,9.22,0,0,0,1,.08,4.67,4.67,0,0,0,1.34-.18,3.59,3.59,0,0,0,1.06-.5,2.2,2.2,0,0,0,1-1.86,1.85,1.85,0,0,0-.51-1.27,3,3,0,0,0-1-.74,6.46,6.46,0,0,0-1.08-.45l-1-.31a1,1,0,0,0-.26-.07.4.4,0,0,1-.19-.07.41.41,0,0,1-.18-.05c-.39-.12-1-.31-1.7-.6a10.73,10.73,0,0,1-2.22-1.16A5,5,0,0,1,131.32,9a6.12,6.12,0,0,1,.58-2.81,5.49,5.49,0,0,1,1.51-1.87,6,6,0,0,1,2.08-1A8.39,8.39,0,0,1,137.73,3a10.51,10.51,0,0,1,3.42.48,12.52,12.52,0,0,1,2.2,1,6.83,6.83,0,0,1,.72.5l.52.43L142.2,7.79a6.18,6.18,0,0,0-1.56-1.16,5.8,5.8,0,0,0-2.48-.56,4.94,4.94,0,0,0-1.14.14,4.43,4.43,0,0,0-1,.37,2.28,2.28,0,0,0-1.23,2,1.81,1.81,0,0,0,.5,1.3,3.5,3.5,0,0,0,1,.77,6.65,6.65,0,0,0,1.13.45l1.1.31.34.08a4,4,0,0,0,.54.17c.26.08.57.19.93.34s.74.33,1.17.54a11.68,11.68,0,0,1,1.26.73Q145.52,15.09,145.52,17.54Zm-15.9,2.26.85,3.39h-3.11a4.56,4.56,0,0,1-3.27-1.37,5,5,0,0,1-1-1.49,4.36,4.36,0,0,1-.37-1.8V6.21l3.4-.85v5.4h2l.85,3.39h-2.82v4.38a1.21,1.21,0,0,0,.36.9,1.17,1.17,0,0,0,.87.37ZM115.19,8.67a5.78,5.78,0,0,1,4.45,2,6.45,6.45,0,0,1,1.24,2.13,7.44,7.44,0,0,1,.44,2.6v7.83h-3.39V15.36a3.07,3.07,0,0,0-1-2.34,3.29,3.29,0,0,0-5.62,2.34v7.83h-3.39V9.06h3.39v1.08a6.59,6.59,0,0,1,1.73-1.06A5.24,5.24,0,0,1,115.19,8.67ZM102.7,9h3.4V23.19h-3.4V16.12a4,4,0,0,0-4.06-4.07,4,4,0,0,0-1.57.32,4.17,4.17,0,0,0-1.31.87,4.06,4.06,0,0,0,0,5.74,3.49,3.49,0,0,0,1.31.88,4.18,4.18,0,0,0,1.57.3,3.88,3.88,0,0,0,1.52-.28l1.22,3a6.71,6.71,0,0,1-3,.65A7.14,7.14,0,0,1,95.49,23a6.92,6.92,0,0,1-2.27-1.6A7.24,7.24,0,0,1,91.72,19a7.68,7.68,0,0,1-.54-2.88,7.84,7.84,0,0,1,.54-2.91,7.3,7.3,0,0,1,1.5-2.37,6.75,6.75,0,0,1,2.27-1.59,7,7,0,0,1,2.87-.58,6.66,6.66,0,0,1,2.45.42,7.21,7.21,0,0,1,1.89,1.07Zm-16.32,0h3.39V23.19H86.38V22.12a6.66,6.66,0,0,1-1.72,1.05,5.49,5.49,0,0,1-2.15.41A5.87,5.87,0,0,1,80,23.06a5.76,5.76,0,0,1-1.93-1.43,6.17,6.17,0,0,1-1.25-2.12,7.63,7.63,0,0,1-.43-2.6V9.06h3.38v7.85a3.31,3.31,0,0,0,6.61,0Zm-12,4.21a10.27,10.27,0,0,1-.47,3.11,10.45,10.45,0,0,1-1.31,2.71l1.78,1.81v4.8L64.13,15.42v-4.8l6,6a7.07,7.07,0,0,0,.33-6A6.61,6.61,0,0,0,69,8.41a6.87,6.87,0,0,0-4.88-2,6.87,6.87,0,0,0-4.86,2,6.68,6.68,0,0,0-2,4.86,7.25,7.25,0,0,0,.5,2.65,7,7,0,0,0,1.51,2.24,6.47,6.47,0,0,0,2.23,1.49,6.81,6.81,0,0,0,2.63.51,5.53,5.53,0,0,0,.71,0l.69-.1,2.69,2.68a10.68,10.68,0,0,1-2,.63,10.18,10.18,0,0,1-6.13-.58,10.12,10.12,0,0,1-5.45-5.48,10.26,10.26,0,0,1,0-8,10.18,10.18,0,0,1,5.45-5.49,10.4,10.4,0,0,1,8,0A10.3,10.3,0,0,1,73.6,9.28,10,10,0,0,1,74.41,13.27Z"/></g></g></svg>