<svg xmlns="http://www.w3.org/2000/svg" viewBox="0 0 258 59.9"><defs><style>.cls-1,.cls-2{fill:#fff;}.cls-2{fill-rule:evenodd;}</style></defs><title>logo-white</title><g id="Слой_2" data-name="Слой 2"><g id="Слой_1-2" data-name="Слой 1"><rect class="cls-1" x="72.68" y="50.43" width="26.67" height="1.09"/><rect class="cls-1" x="231.33" y="50.43" width="26.67" height="1.09"/><path class="cls-1" d="M224.4,47.61v7.63h1.1V47.61h2.57V46.7h-6.25v.91Zm-10.2-.91v8.54h1V50.77c0-.45,0-.9,0-1.35s-.07-.89-.1-1.32h0l.93,1.76,3.1,5.38h1.12V46.7h-1v4.42c0,.44,0,.9,0,1.36s.06.92.09,1.35h-.06l-.92-1.77-3.08-5.36Zm-6.86,0v8.54h5.06v-.92h-4V51.21h3.23v-.92h-3.23V47.61h3.84V46.7Zm-9.46,0v8.54h1v-4.7c0-.38,0-.8-.06-1.27s-.06-.88-.08-1.26h0l.67,1.9,1.65,4.47h.62l1.64-4.47.69-1.9h.05c0,.38-.07.81-.1,1.26s0,.89,0,1.27v4.7h1V46.7h-1.28l-1.64,4.58-.6,1.75h0l-.62-1.75-1.66-4.58Zm-6.87,0v8.54h5.06v-.92h-4V51.21h3.25v-.92h-3.25V47.61h3.85V46.7ZM182.48,51a5.73,5.73,0,0,0,.29,1.87,4.28,4.28,0,0,0,.79,1.39,3.5,3.5,0,0,0,1.21.87,4.15,4.15,0,0,0,1.55.29,3.92,3.92,0,0,0,1.54-.27,3.37,3.37,0,0,0,1.11-.71v-3.6h-2.8v.9H188v2.23a2,2,0,0,1-.67.37,2.52,2.52,0,0,1-.87.14,2.84,2.84,0,0,1-1.21-.25,2.32,2.32,0,0,1-.9-.71,3.27,3.27,0,0,1-.54-1.09,5.11,5.11,0,0,1-.19-1.46,4.84,4.84,0,0,1,.2-1.43,3.32,3.32,0,0,1,.57-1.09,2.49,2.49,0,0,1,.89-.69,2.75,2.75,0,0,1,1.17-.24,2.26,2.26,0,0,1,1.07.23,2.83,2.83,0,0,1,.75.56l.61-.68a4,4,0,0,0-1-.73,3.1,3.1,0,0,0-1.47-.33,4.1,4.1,0,0,0-1.59.31,3.44,3.44,0,0,0-1.23.88,4,4,0,0,0-.83,1.39A5.57,5.57,0,0,0,182.48,51Zm-2.55,1.67.8,2.6h1.16L179,46.7h-1.23l-2.89,8.54H176l.82-2.6Zm-.27-.87h-2.57l.41-1.3c.15-.48.3-1,.43-1.44s.28-1,.42-1.45h0c.14.5.28,1,.42,1.45s.28,1,.45,1.44ZM167.6,46.7v8.54h1V50.77c0-.45,0-.9,0-1.35s-.07-.89-.1-1.32h.06l.92,1.76,3.1,5.38h1.12V46.7h-1v4.42c0,.44,0,.9,0,1.36s.07.92.09,1.35h-.06l-.92-1.77-3.08-5.36Zm-3.18,5.94.81,2.6h1.16L163.5,46.7h-1.23l-2.89,8.54h1.1l.83-2.6Zm-.27-.87h-2.57l.4-1.3c.16-.48.3-1,.45-1.44s.27-1,.4-1.45h0c.14.5.28,1,.42,1.45s.29,1,.44,1.44ZM151,46.7v8.54h1v-4.7c0-.38,0-.8-.05-1.27s-.07-.88-.09-1.26h0l.69,1.9,1.65,4.47h.61l1.64-4.47.69-1.9h.05c0,.38-.06.81-.1,1.26s0,.89,0,1.27v4.7h1V46.7h-1.28l-1.64,4.58-.6,1.75h-.05L154,51.28l-1.65-4.58Zm-8.95,0v8.54h4.82v-.92h-3.75V46.7Zm-3.18,5.94.8,2.6h1.16L138,46.7h-1.23l-2.89,8.54H135l.82-2.6Zm-.27-.87h-2.57l.41-1.3c.15-.48.3-1,.43-1.44s.29-1,.42-1.45h0c.14.5.28,1,.42,1.45s.28,1,.45,1.44Zm-8.33-4.16v7.63h1.1V47.61H134V46.7h-6.25v.91Zm-5.19-.91v8.54h1.08V46.7Zm-5,4.27h-1.4v-3.4h1.4a3.08,3.08,0,0,1,1.66.36,1.43,1.43,0,0,1,.55,1.28,1.58,1.58,0,0,1-.55,1.33A2.68,2.68,0,0,1,120.1,51Zm-2.48-4.27v8.54h1.08V51.85h1.54a4.72,4.72,0,0,0,1.28-.16,2.78,2.78,0,0,0,1-.49,2,2,0,0,0,.65-.82,2.66,2.66,0,0,0,.23-1.17,2.69,2.69,0,0,0-.23-1.19,2,2,0,0,0-.64-.77,2.77,2.77,0,0,0-1-.42,5.72,5.72,0,0,0-1.28-.13Zm-3.18,5.94.81,2.6h1.15l-2.88-8.54h-1.23l-2.89,8.54h1.11l.82-2.6Zm-.27-.87h-2.56l.4-1.3c.15-.48.3-1,.44-1.44l.41-1.45h0c.13.5.27,1,.41,1.45s.28,1,.45,1.44ZM102.6,51a6,6,0,0,0,.28,1.87,4.26,4.26,0,0,0,.78,1.39,3.58,3.58,0,0,0,1.18.87,3.89,3.89,0,0,0,1.5.29,3.27,3.27,0,0,0,1.46-.32,4,4,0,0,0,1.15-.91l-.62-.67a2.9,2.9,0,0,1-.88.71,2.27,2.27,0,0,1-1.08.25,2.44,2.44,0,0,1-1.1-.25,2.18,2.18,0,0,1-.83-.71,3.69,3.69,0,0,1-.53-1.09,5.12,5.12,0,0,1-.18-1.46,4.85,4.85,0,0,1,.19-1.43,3.47,3.47,0,0,1,.54-1.09,2.64,2.64,0,0,1,.85-.69,2.51,2.51,0,0,1,1.11-.24,2,2,0,0,1,1,.22,2.76,2.76,0,0,1,.75.57l.62-.68a3.65,3.65,0,0,0-1-.74,2.86,2.86,0,0,0-1.37-.32,3.82,3.82,0,0,0-1.52.31,3.29,3.29,0,0,0-1.21.88,4.28,4.28,0,0,0-.79,1.39A5.57,5.57,0,0,0,102.6,51Z"/><path class="cls-2" d="M25.65,15.22l10.28,13.9c1-.36,7.53-4.76,8.72-5.62a25.75,25.75,0,0,1,2.86-2c-.85-2.27-6.95-9.2-9.22-11.25L36.53,8.63a10.21,10.21,0,0,0-1.9-1.49c-1.56,1.38-3.48,3.7-5.43,5.19-.43.33-.8.68-1.21,1-.69.57-1.73,1.27-2.34,1.88M13,22.07c1.72,5.17,2.08,7.26,4.6,12.18.63,1.25,1.5,2.61,2,3.76a109.44,109.44,0,0,0,12.41-6.52c-1.29-2.77-7.36-13.44-7.88-15.12A22.67,22.67,0,0,0,21.41,18C17.86,20.15,16.66,20.43,13,22.07ZM40.34,35l4.27,6.13c1.41,1.95,2.9,4.22,4.16,6.27a66.16,66.16,0,0,0,7.25-5c.09-3.68-3.8-13.63-5.51-16A98.05,98.05,0,0,1,43.08,33,21.34,21.34,0,0,1,40.34,35ZM2.79,23.53a42,42,0,0,0,.82,10.62c.45,2,2.14,7.14,3.12,8.4,1.7-.13,8.2-2.13,9.12-2.95-.88-2.74-1.73-4.07-2.79-7.94a67.9,67.9,0,0,1-1.78-9c-1.24.2-2.52.67-3.93.89A17,17,0,0,1,2.79,23.53ZM24,44.47a11.15,11.15,0,0,0,.91,1.17L29,50c1.41,1.32,4.34,4,6,4.81.62.28,2.21-.73,2.9-1.08a46.81,46.81,0,0,0,5.52-3.06l-3.92-6.12c-.57-.92-3.33-5.9-3.8-6.26a61.16,61.16,0,0,1-5.53,3.28c-1,.55-2,1-3,1.45Zm-14.25,3c4.52,5.41,7,7.8,14,10.69,1.27.52,1.44.46,3.41-.08a19,19,0,0,0,2.88-1l.18-.12C29.15,56.2,28,55.64,27,54.86a27,27,0,0,1-2.88-2.58,35.89,35.89,0,0,1-4.76-6.19c-1.15.1-3.07.76-4.42,1A42.81,42.81,0,0,1,9.74,47.48ZM64.93,33.6l-2.15,2.87A15.69,15.69,0,0,1,60.2,39c-.91-5.89-1.93-9.53-5.14-14.5a11.07,11.07,0,0,1-1.13-1.85c.75-1.24,2.42-2.77,4.14-5.93,1-1.76,2.62-5.41,1.88-7.89a16,16,0,0,1-4,5.47c-.43.43-.68.72-1.15,1.21l-3.92,3.28c-1.17-1.67-4-4.08-5.11-5.36a5.51,5.51,0,0,0-.91-.85c-1.68-1.35-2.49-2.27-4.82-3.89-1.37-1-2.87-1.9-4.19-2.83a7.45,7.45,0,0,1,.87-1.2,14.86,14.86,0,0,0,2.42-4c-1.44,1-3.85,3.4-5.09,4.06C31.3,3.7,30,2.3,24.8.73,21.74-.2,21.54,0,21.54,0L21.33.1c1.28-.22,5,1.59,6.18,2.2s1.75,1,2.7,1.57a19.3,19.3,0,0,1,2.56,1.79l-.51.44c-1.48,1.16-8.18,5.59-9,5.75-.57-.69-1-1.36-1.49-2L17.2,3.31c.35,1.16,4.44,8,4.83,9.48a17.4,17.4,0,0,0-2.44,1.29c-1.31.75-6.53,3.52-7.49,3.68A57.38,57.38,0,0,1,11.67,12c0-2.06.46-4,.48-5.71-1.73,6.34-.72,8.41-1.27,12.06A32.47,32.47,0,0,1,3.09,21a35.77,35.77,0,0,1,1.39-6,27.81,27.81,0,0,1,1-2.79c.36-.83,1-1.89,1.22-2.67C5.45,11,3.66,16,3.14,17.86c-.28,1-.54,2.38-.87,3.25A3.69,3.69,0,0,1,0,20.77c.2,1.29,1,1.78,2,2.45C1.74,29.76,1.2,32,3.14,38.48c.43,1.44,1.19,2.91,1.53,4.21a3,3,0,0,1-1.85-.64,15.21,15.21,0,0,0,1.29,2.39c1.37,2.18,2.52,1.86,3.18,2.72,3.63,4.68,5.77,7.15,11.87,10,3.09,1.43,9.15,3,13.11,2.73a23.28,23.28,0,0,0,3.28-.59c2.38-.59,3.18.25,7-1,.95-.31,2.08-.85,2.83-1.05a13.31,13.31,0,0,1-4,.14L44,55.94a27.35,27.35,0,0,1,2.6-1.41c1.51,1.75,2.47.84,3.44.23,1.86-1.17,1.8-1,1-3.3l3.7-2.94A12.45,12.45,0,0,1,56,47.44a7.53,7.53,0,0,1-1.81,4.21,21.81,21.81,0,0,0,3.5-3.6c1.7-2.2,1.71-4.1,2.34-4.89a25.81,25.81,0,0,0,4.11-6.67C64.5,35.55,64.59,34.55,64.93,33.6Z"/><path class="cls-1" d="M247.94,16.26a5.46,5.46,0,0,0-3.89,1.61,5.23,5.23,0,0,0-1.1,1.59h10a5.09,5.09,0,0,0-1.11-1.59,5.25,5.25,0,0,0-3.88-1.61M257.73,24H243a4.71,4.71,0,0,0,1.1,1.57,5.46,5.46,0,0,0,3.89,1.59,5.45,5.45,0,0,0,2.78-.71l4.76,1.89a9.4,9.4,0,0,1-3.31,2.5A10.34,10.34,0,0,1,244,31a10.07,10.07,0,0,1-5.35-5.36,9.79,9.79,0,0,1-.78-3.89,9.9,9.9,0,0,1,.78-3.92A9.92,9.92,0,0,1,244,12.48a10.17,10.17,0,0,1,7.86,0,9.92,9.92,0,0,1,5.35,5.35,9.9,9.9,0,0,1,.78,3.92A9.33,9.33,0,0,1,257.73,24Zm-21.94,7.24H231.2V4.61h4.59Zm-11.14-19h5l-8.85,19.05-1.18,2.6a8.7,8.7,0,0,1-7.92,5.06h-2l1.14-4.58H212a3.83,3.83,0,0,0,2.06-.6,3.75,3.75,0,0,0,1.41-1.64l.38-.84-8.85-19h5l6.32,13.64Zm-17.1,14.48,1.14,4.57H204.5a6.05,6.05,0,0,1-2.44-.5,6.18,6.18,0,0,1-2-1.34,6.46,6.46,0,0,1-1.33-2,6,6,0,0,1-.49-2.43V8.37l4.57-1.13v7.28h2.67l1.14,4.57h-3.81V25a1.61,1.61,0,0,0,.5,1.21,1.56,1.56,0,0,0,1.18.5Zm-11.21-3.05a8.8,8.8,0,0,1-.61,3.37A6.93,6.93,0,0,1,194,29.59a7.9,7.9,0,0,1-2.72,1.62,10.59,10.59,0,0,1-3.58.57,14.89,14.89,0,0,1-5.64-1A15.71,15.71,0,0,1,178,28.46l3.16-3.16A9,9,0,0,0,184,27.05a8,8,0,0,0,1.79.5,11.43,11.43,0,0,0,1.36.11,6.47,6.47,0,0,0,1.82-.24,5.25,5.25,0,0,0,1.43-.67,3,3,0,0,0,1.29-2.52,2.57,2.57,0,0,0-.68-1.72,4,4,0,0,0-1.37-1,6.93,6.93,0,0,0-1.46-.61l-1.36-.42a1.11,1.11,0,0,0-.35-.1.54.54,0,0,1-.26-.09.64.64,0,0,1-.24-.07c-.53-.16-1.29-.42-2.3-.81a14.76,14.76,0,0,1-3-1.56c-2.31-1.55-3.47-3.45-3.47-5.72A8.47,8.47,0,0,1,178,8.36a7.54,7.54,0,0,1,4.85-3.9,11.41,11.41,0,0,1,3-.43,14.32,14.32,0,0,1,4.62.65,19.13,19.13,0,0,1,3,1.29,11.37,11.37,0,0,1,1,.68c.26.22.5.41.7.59l-3.23,3.27A8.27,8.27,0,0,0,189.75,9a7.7,7.7,0,0,0-3.35-.76,6.53,6.53,0,0,0-1.53.18,6.35,6.35,0,0,0-1.34.5,3.1,3.1,0,0,0-1.67,2.71,2.45,2.45,0,0,0,.69,1.75,4.69,4.69,0,0,0,1.36,1,8.38,8.38,0,0,0,1.53.6l1.49.43.46.1a7.06,7.06,0,0,0,.72.23,9.59,9.59,0,0,1,1.26.46c.48.2,1,.44,1.58.72a18.67,18.67,0,0,1,1.7,1Q196.34,20.35,196.34,23.66Zm-21.45,3.05L176,31.28h-4.19a6.12,6.12,0,0,1-2.44-.5,6,6,0,0,1-2-1.34,6.67,6.67,0,0,1-1.34-2,6,6,0,0,1-.5-2.43V8.37l4.58-1.13v7.28h2.66L174,19.09h-3.81V25a1.68,1.68,0,0,0,.49,1.21,1.6,1.6,0,0,0,1.18.5Zm-19.47-15a7.86,7.86,0,0,1,6,2.65,9,9,0,0,1,1.67,2.88,10.09,10.09,0,0,1,.6,3.5V31.28h-4.58V20.72a4.19,4.19,0,0,0-1.34-3.16,4.44,4.44,0,0,0-6.28,0,4.32,4.32,0,0,0-1.29,3.16V31.28h-4.58v-19h4.58v1.45a8.68,8.68,0,0,1,2.32-1.43A7.25,7.25,0,0,1,155.42,11.69Zm-16.86.5h4.58V31.28h-4.58V21.75A5.47,5.47,0,0,0,131,16.69a5.47,5.47,0,0,0-3.38,5.06,5.27,5.27,0,0,0,1.61,3.86A4.73,4.73,0,0,0,131,26.8a5.61,5.61,0,0,0,2.11.4,5.4,5.4,0,0,0,2.06-.38l1.63,4.08a8.87,8.87,0,0,1-4.07.88,9.56,9.56,0,0,1-3.87-.78,9.24,9.24,0,0,1-3.06-2.16,9.75,9.75,0,0,1-2-3.2,10.5,10.5,0,0,1-.72-3.89,10.62,10.62,0,0,1,.72-3.92,9.9,9.9,0,0,1,2-3.21,9.33,9.33,0,0,1,3.06-2.14,9.56,9.56,0,0,1,3.87-.79,8.93,8.93,0,0,1,3.31.58,9.83,9.83,0,0,1,2.55,1.44Zm-22,0h4.56V31.28h-4.56V29.84a9.32,9.32,0,0,1-2.33,1.42,7.26,7.26,0,0,1-2.89.55,8,8,0,0,1-3.4-.7,7.93,7.93,0,0,1-2.61-1.92,8.56,8.56,0,0,1-1.68-2.87,10.32,10.32,0,0,1-.58-3.5V12.23h4.56V22.82A4.28,4.28,0,0,0,109,25.94a4.45,4.45,0,0,0,7.59-3.12ZM100.39,17.9a13.77,13.77,0,0,1-.63,4.2A14.09,14.09,0,0,1,98,25.76l2.4,2.44v6.48L86.52,20.8V14.32l8.15,8.12a9.51,9.51,0,0,0,.45-8.07,9,9,0,0,0-2-3,9.36,9.36,0,0,0-3-2,9.18,9.18,0,0,0-3.58-.71A9,9,0,0,0,83,9.32a9.48,9.48,0,0,0-5,5,9.32,9.32,0,0,0-.68,3.53,9.56,9.56,0,0,0,.68,3.57,9.28,9.28,0,0,0,2,3,9.12,9.12,0,0,0,3,2,9.39,9.39,0,0,0,3.55.68c.32,0,.64,0,1-.05l.94-.13L92,30.63a16.08,16.08,0,0,1-2.65.85,14,14,0,0,1-8.27-.78,13.82,13.82,0,0,1-7.35-7.4,13.47,13.47,0,0,1-1.09-5.4,13.37,13.37,0,0,1,1.09-5.38,14,14,0,0,1,3-4.43A13.8,13.8,0,0,1,86.52,4a13.4,13.4,0,0,1,5.4,1.09,13.83,13.83,0,0,1,7.38,7.4A13.37,13.37,0,0,1,100.39,17.9Z"/></g></g></svg>