<svg xmlns="http://www.w3.org/2000/svg" viewBox="0 0 517.56 120.16"><defs><style>.cls-1,.cls-2{fill:#214b83;}.cls-2{fill-rule:evenodd;}</style></defs><title>Logo Siniy </title><g id="Слой_2" data-name="Слой 2"><g id="Слой_1-2" data-name="Слой 1"><rect class="cls-1" x="145.8" y="101.16" width="53.5" height="2.18"/><rect class="cls-1" x="464.05" y="101.16" width="53.5" height="2.18"/><path class="cls-1" d="M450.15,95.51v15.31h2.2V95.51h5.16V93.68H445v1.83Zm-20.46-1.83v17.14h2.07v-9c0-.89,0-1.8-.09-2.69s-.13-1.79-.2-2.66h.11l1.86,3.53,6.22,10.8h2.24V93.68h-2.07v8.86c0,.89,0,1.81.09,2.74s.13,1.84.18,2.7H440l-1.85-3.54L432,93.68Zm-13.76,0v17.14h10.15V109h-8v-6.23h6.49v-1.85h-6.49V95.51h7.71V93.68Zm-19,0v17.14h2v-9.43c0-.77,0-1.61-.11-2.55s-.13-1.76-.17-2.52h.11l1.35,3.8,3.31,9h1.24l3.28-9,1.4-3.8h.08c-.06.76-.13,1.61-.19,2.52s-.09,1.78-.09,2.55v9.43h2.07V93.68h-2.57l-3.28,9.19-1.2,3.5h-.11l-1.24-3.5-3.33-9.19Zm-13.78,0v17.14h10.15V109h-8v-6.23h6.5v-1.85h-6.5V95.51h7.71V93.68Zm-17.11,8.56a11.07,11.07,0,0,0,.59,3.76,8.16,8.16,0,0,0,1.58,2.79,7,7,0,0,0,2.42,1.74,8.14,8.14,0,0,0,3.12.59,7.9,7.9,0,0,0,3.08-.55,6.6,6.6,0,0,0,2.23-1.43v-7.21h-5.62v1.81h3.64v4.46a3.72,3.72,0,0,1-1.35.74,5.09,5.09,0,0,1-1.74.29,5.65,5.65,0,0,1-2.44-.51,4.67,4.67,0,0,1-1.79-1.41,6.3,6.3,0,0,1-1.09-2.2,10.1,10.1,0,0,1-.39-2.91,9.8,9.8,0,0,1,.42-2.88,6.43,6.43,0,0,1,1.13-2.18,5.1,5.1,0,0,1,1.78-1.39,5.58,5.58,0,0,1,2.35-.48,4.61,4.61,0,0,1,2.16.46,5.58,5.58,0,0,1,1.5,1.13l1.22-1.37A8.26,8.26,0,0,0,376.92,94a6.05,6.05,0,0,0-3-.68,8.06,8.06,0,0,0-3.18.63,6.81,6.81,0,0,0-2.48,1.77,7.83,7.83,0,0,0-1.65,2.79A10.68,10.68,0,0,0,366.06,102.24Zm-5.12,3.35,1.61,5.23h2.33l-5.79-17.14h-2.45l-5.8,17.14h2.22l1.64-5.23Zm-.54-1.74h-5.16l.83-2.61c.3-1,.61-1.92.87-2.88s.56-1.91.83-2.92h.09c.27,1,.56,2,.84,2.92s.57,1.92.89,2.88ZM336.21,93.68v17.14h2.05v-9c0-.89,0-1.8-.08-2.69s-.14-1.79-.2-2.66h.11l1.85,3.53,6.22,10.8h2.25V93.68h-2.07v8.86c0,.89,0,1.81.08,2.74s.14,1.84.18,2.7h-.11l-1.85-3.54-6.19-10.76Zm-6.38,11.91,1.62,5.23h2.33L328,93.68h-2.45l-5.81,17.14h2.21l1.66-5.23Zm-.54-1.74h-5.16l.81-2.61c.33-1,.6-1.92.89-2.88s.54-1.91.8-2.92h.11c.29,1,.57,2,.85,2.92s.57,1.92.88,2.88ZM303,93.68v17.14h2v-9.43c0-.77,0-1.61-.11-2.55s-.13-1.76-.17-2.52h.09l1.36,3.8,3.31,9h1.24l3.29-9,1.37-3.8h.11c-.06.76-.13,1.61-.2,2.52s-.08,1.78-.08,2.55v9.43h2.07V93.68h-2.57l-3.29,9.19-1.2,3.5h-.1l-1.27-3.5-3.31-9.19Zm-17.95,0v17.14h9.66V109h-7.51V93.68Zm-6.38,11.91,1.61,5.23h2.33l-5.8-17.14h-2.45l-5.8,17.14h2.23l1.63-5.23Zm-.55-1.74H273l.83-2.61c.31-1,.61-1.92.87-2.88s.57-1.91.83-2.92h.09c.28,1,.56,2,.84,2.92s.57,1.92.9,2.88Zm-16.7-8.34v15.31h2.21V95.51h5.15V93.68H256.23v1.83ZM251,93.68v17.14h2.17V93.68Zm-10.06,8.56h-2.81V95.43h2.81a6.2,6.2,0,0,1,3.33.71,2.88,2.88,0,0,1,1.09,2.57,3.21,3.21,0,0,1-1.09,2.68A5.4,5.4,0,0,1,240.93,102.24Zm-5-8.56v17.14h2.17V104h3.08a9.29,9.29,0,0,0,2.56-.33,5.49,5.49,0,0,0,2-1,4.29,4.29,0,0,0,1.31-1.66,6.28,6.28,0,0,0,0-4.72,4.14,4.14,0,0,0-1.28-1.55,5.57,5.57,0,0,0-2-.85,12.19,12.19,0,0,0-2.58-.26Zm-6.38,11.91,1.63,5.23h2.31l-5.79-17.14h-2.46l-5.79,17.14h2.22l1.63-5.23Zm-.55-1.74h-5.13l.8-2.61c.3-1,.61-1.92.89-2.88s.55-1.91.81-2.92h.11c.26,1,.54,2,.83,2.92s.56,1.92.89,2.88Zm-23.2-1.61a11.88,11.88,0,0,0,.56,3.76,8.31,8.31,0,0,0,1.57,2.79,6.87,6.87,0,0,0,2.37,1.74,7.62,7.62,0,0,0,3,.59,6.36,6.36,0,0,0,2.91-.65,7.72,7.72,0,0,0,2.31-1.83l-1.24-1.33a6,6,0,0,1-1.76,1.41,4.5,4.5,0,0,1-2.18.51,4.85,4.85,0,0,1-2.2-.51,4.39,4.39,0,0,1-1.65-1.41,7,7,0,0,1-1.07-2.2,10.12,10.12,0,0,1-.37-2.91,9.84,9.84,0,0,1,.39-2.88,6.56,6.56,0,0,1,1.09-2.18,5,5,0,0,1,1.7-1.39,5,5,0,0,1,2.22-.48,4.08,4.08,0,0,1,1.91.44,5.66,5.66,0,0,1,1.51,1.15l1.24-1.37A6.87,6.87,0,0,0,216.2,94a5.5,5.5,0,0,0-2.74-.66,7.5,7.5,0,0,0-3.05.63A6.6,6.6,0,0,0,208,95.75a8.18,8.18,0,0,0-1.59,2.79A10.93,10.93,0,0,0,205.82,102.24Z"/><path class="cls-2" d="M51.46,30.52,72.09,58.41c2-.71,15.09-9.54,17.47-11.27a50.82,50.82,0,0,1,5.74-4C93.59,38.6,81.37,24.7,76.82,20.57l-3.54-3.26c-1.26-1-2.38-2.37-3.82-3-3.13,2.77-7,7.43-10.89,10.43-.85.65-1.6,1.35-2.42,2-1.39,1.15-3.47,2.54-4.69,3.76M26,44.28c3.43,10.36,4.15,14.55,9.21,24.43,1.28,2.5,3,5.24,4,7.54C41.89,75.53,63,64.38,64.05,63.16c-2.58-5.54-14.76-26.95-15.81-30.33A46.54,46.54,0,0,0,43,36.05C35.82,40.42,33.42,41,26,44.28ZM80.93,70.21l8.55,12.3c2.83,3.91,5.83,8.46,8.35,12.58a131.93,131.93,0,0,0,14.55-10c.19-7.38-7.63-27.33-11-32.16C99.4,55.24,89.24,64,86.41,66.2,85.18,67.17,82.14,69.71,80.93,70.21ZM5.6,47.2A84.1,84.1,0,0,0,7.24,68.51c.9,4,4.29,14.31,6.27,16.84,3.4-.25,16.43-4.27,18.28-5.91C30,74,28.33,71.28,26.2,63.51a134.8,134.8,0,0,1-3.57-18.06c-2.49.41-5.05,1.35-7.89,1.8C10.86,47.87,9.21,47.41,5.6,47.2Zm42.53,42A21.13,21.13,0,0,0,50,91.55l8.12,8.76c2.83,2.63,8.7,8.11,12,9.64,1.23.57,4.42-1.45,5.82-2.17,2.29-1.17,9.81-4.89,11.07-6.13L79.09,89.36C78,87.53,72.42,77.54,71.47,76.81c-1.84,1.52-8.66,5.24-11.08,6.58-2,1.11-3.92,1.91-6,2.9Zm-28.59,6c9.07,10.86,14.07,15.65,28.07,21.43,2.57,1.06,2.91.93,6.84-.14a38.15,38.15,0,0,0,5.79-1.92l.35-.24c-2.12-1.64-4.41-2.77-6.34-4.33a54.41,54.41,0,0,1-5.78-5.17,72.55,72.55,0,0,1-9.56-12.42c-2.29.2-6.16,1.53-8.86,2C26.05,95.2,23.41,95,19.54,95.25ZM130.25,67.39l-4.31,5.77a30.76,30.76,0,0,1-5.18,5c-1.81-11.81-3.87-19.11-10.31-29.08a22,22,0,0,1-2.26-3.71c1.51-2.49,4.84-5.55,8.29-11.89,1.93-3.55,5.26-10.87,3.78-15.84-2.06,4.94-4.6,7.44-8.05,11-.85.87-1.36,1.45-2.29,2.43l-7.87,6.58c-2.34-3.34-8-8.18-10.25-10.74A10.8,10.8,0,0,0,90,25.19c-3.38-2.71-5-4.55-9.67-7.8-2.75-1.92-5.75-3.81-8.41-5.68a14.53,14.53,0,0,1,1.76-2.39,30.25,30.25,0,0,0,4.85-8c-2.89,2.09-7.73,6.83-10.22,8.16-5.5-2.09-8.2-4.9-18.54-8C43.6-.4,43.21.05,43.21.05L42.8.2c2.55-.43,10.1,3.18,12.39,4.41,2,1.09,3.51,2,5.41,3.16a39.47,39.47,0,0,1,5.14,3.58l-1,.89c-3,2.32-16.41,11.21-18,11.54-1.15-1.39-2-2.73-3-4.11l-9.17-13c.72,2.33,8.9,16.09,9.69,19a34.67,34.67,0,0,0-4.9,2.6c-2.63,1.5-13.09,7.06-15,7.38a115.57,115.57,0,0,1-.86-11.55c0-4.14.92-8,1-11.46-3.47,12.72-1.45,16.86-2.54,24.19-2.52,1.52-12.38,4.95-15.64,5.25A73.91,73.91,0,0,1,9,29.93a55.09,55.09,0,0,1,2.1-5.6c.73-1.66,1.94-3.8,2.45-5.35-2.62,3-6.21,13.15-7.25,16.84-.54,1.93-1.07,4.78-1.73,6.52-1.77.1-3.24.15-4.56-.67.4,2.58,2.08,3.56,3.92,4.91C3.49,59.71,2.41,64.1,6.3,77.19c.85,2.89,2.39,5.84,3.07,8.44C8,85.51,6.2,85.11,5.65,84.36a30.75,30.75,0,0,0,2.6,4.79c2.75,4.37,5,3.72,6.38,5.45,7.28,9.39,11.57,14.34,23.81,20,6.19,2.86,18.35,6.11,26.29,5.46a45.29,45.29,0,0,0,6.59-1.17c4.78-1.19,6.38.5,14-2,1.89-.61,4.17-1.69,5.67-2.11-3.46.36-4.16.72-8,.29l5.39-2.87a50.65,50.65,0,0,1,5.21-2.83c3,3.52,4.95,1.68,6.91.45,3.72-2.33,3.61-2,2-6.6l7.44-5.91a23.72,23.72,0,0,1,2.47-2.16c-.37,3.17-2,7.07-3.62,8.44a43.72,43.72,0,0,0,7-7.21c3.42-4.43,3.44-8.23,4.7-9.82,3.17-4,6.31-8.29,8.24-13.37C129.38,71.31,129.57,69.31,130.25,67.39Z"/><path class="cls-1" d="M497.37,32.62a10.89,10.89,0,0,0-7.79,3.23,10.49,10.49,0,0,0-2.22,3.2h20a10.49,10.49,0,0,0-2.22-3.2,10.6,10.6,0,0,0-7.8-3.23M517,48.23H487.36a9.47,9.47,0,0,0,2.22,3.14,10.51,10.51,0,0,0,3.59,2.39,11,11,0,0,0,4.2.81A10.79,10.79,0,0,0,503,53.13l9.55,3.81a19,19,0,0,1-6.64,5,20.81,20.81,0,0,1-16.37.24,20.22,20.22,0,0,1-10.73-10.76,19.47,19.47,0,0,1-1.57-7.79,19.8,19.8,0,0,1,1.57-7.88A20,20,0,0,1,489.49,25a20.56,20.56,0,0,1,15.76,0A20,20,0,0,1,516,35.76a19.81,19.81,0,0,1,1.58,7.88A18.86,18.86,0,0,1,517,48.23ZM473,62.75H463.8V9.24H473ZM450.66,24.53h10.1L443,62.75,440.64,68a17.39,17.39,0,0,1-15.89,10.17H420.7L423,68.94h2.22a7.65,7.65,0,0,0,7-4.51l.76-1.68L415.2,24.53h10.07L438,51.89ZM416.35,53.59l2.28,9.16h-8.4a12.07,12.07,0,0,1-4.9-1,12.3,12.3,0,0,1-4-2.7,13.28,13.28,0,0,1-2.68-4,12.37,12.37,0,0,1-1-4.88V16.8l9.17-2.29V29.12h5.35l2.29,9.17h-7.64V50.15a3.31,3.31,0,0,0,1,2.44,3.21,3.21,0,0,0,2.37,1Zm-22.49-6.12a17.84,17.84,0,0,1-1.22,6.75,14.11,14.11,0,0,1-3.48,5.14,15.78,15.78,0,0,1-5.46,3.24,21.1,21.1,0,0,1-7.19,1.15,29.86,29.86,0,0,1-11.32-2A31.88,31.88,0,0,1,357,57.09l6.33-6.33a18.1,18.1,0,0,0,5.67,3.5,16.27,16.27,0,0,0,3.58,1,23.11,23.11,0,0,0,2.75.21A12.81,12.81,0,0,0,379,55a10,10,0,0,0,2.88-1.35,6,6,0,0,0,2.59-5,5.08,5.08,0,0,0-1.37-3.44,8.1,8.1,0,0,0-2.75-2A15.27,15.27,0,0,0,377.42,42c-1-.3-1.92-.59-2.74-.85a3.3,3.3,0,0,0-.69-.19,1.11,1.11,0,0,1-.53-.18,1.36,1.36,0,0,1-.48-.15q-1.58-.45-4.61-1.61a30.58,30.58,0,0,1-6-3.13q-6.94-4.66-6.94-11.48a16.79,16.79,0,0,1,1.56-7.6,14.69,14.69,0,0,1,4.1-5,15.56,15.56,0,0,1,5.61-2.79,23.15,23.15,0,0,1,6.08-.85A28.37,28.37,0,0,1,382,9.4,35.09,35.09,0,0,1,388,12a17,17,0,0,1,1.94,1.35q.81.64,1.41,1.17l-6.48,6.58a16.41,16.41,0,0,0-4.2-3.14,15.64,15.64,0,0,0-6.73-1.52,12.83,12.83,0,0,0-3.07.37,12,12,0,0,0-2.68,1,6.2,6.2,0,0,0-3.35,5.42,4.94,4.94,0,0,0,1.37,3.52,9.41,9.41,0,0,0,2.75,2.08A16.79,16.79,0,0,0,372,30l3,.84.91.22a15.08,15.08,0,0,0,1.46.46,22.52,22.52,0,0,1,2.53.91c1,.41,2,.9,3.15,1.46a31.42,31.42,0,0,1,3.42,2Q393.86,40.82,393.86,47.47Zm-43,6.12,2.29,9.16H344.7a12.41,12.41,0,0,1-8.85-3.7,13.28,13.28,0,0,1-2.68-4,12,12,0,0,1-1-4.88V16.8l9.19-2.29V29.12h5.33l2.3,9.17h-7.63V50.15a3.36,3.36,0,0,0,1,2.44,3.28,3.28,0,0,0,2.37,1ZM311.77,23.46a15.81,15.81,0,0,1,6.79,1.42,15.61,15.61,0,0,1,5.25,3.89,17.7,17.7,0,0,1,3.35,5.77,20.36,20.36,0,0,1,1.2,7V62.75h-9.19V41.57a8.34,8.34,0,0,0-2.67-6.33,8.9,8.9,0,0,0-15.2,6.33V62.75h-9.19V24.53h9.19v2.91A17.76,17.76,0,0,1,306,24.57,14.58,14.58,0,0,1,311.77,23.46Zm-33.81,1h9.19V62.75H278V43.64a11,11,0,0,0-11-11,11,11,0,0,0-4.25.85,10.88,10.88,0,0,0-3.54,2.38,10.94,10.94,0,0,0,0,15.52,9.53,9.53,0,0,0,3.54,2.39,11.35,11.35,0,0,0,4.25.81,10.71,10.71,0,0,0,4.11-.76L274.37,62a18,18,0,0,1-8.16,1.76,19.16,19.16,0,0,1-7.77-1.56,18.52,18.52,0,0,1-6.14-4.34,19.88,19.88,0,0,1-4.08-6.42,21.26,21.26,0,0,1-1.43-7.79,21.62,21.62,0,0,1,1.43-7.88,20.2,20.2,0,0,1,4.08-6.42A18.58,18.58,0,0,1,258.44,25a19,19,0,0,1,7.77-1.57,17.64,17.64,0,0,1,6.64,1.16A18.92,18.92,0,0,1,278,27.51Zm-44.17.07H243V62.75h-9.17V59.86a18.49,18.49,0,0,1-4.66,2.85,14.68,14.68,0,0,1-5.81,1.11,16,16,0,0,1-6.81-1.42,15.7,15.7,0,0,1-5.23-3.85,17.18,17.18,0,0,1-3.37-5.75,20.79,20.79,0,0,1-1.17-7V24.53h9.16V45.77a8.95,8.95,0,0,0,17.89,0ZM201.38,35.91a27.83,27.83,0,0,1-1.26,8.43,28.42,28.42,0,0,1-3.55,7.33l4.81,4.9v13L173.56,41.73v-13L189.9,45a19.14,19.14,0,0,0,.92-16.19,18.27,18.27,0,0,0-4-6.06,18.63,18.63,0,0,0-6-4.07,18.42,18.42,0,0,0-7.18-1.41,18.37,18.37,0,0,0-13.15,5.48,18.64,18.64,0,0,0-4.07,6.06A18.39,18.39,0,0,0,155,35.91a19,19,0,0,0,1.37,7.17,18.58,18.58,0,0,0,4.07,6.07,17.92,17.92,0,0,0,6,4,18.51,18.51,0,0,0,7.12,1.38,17.88,17.88,0,0,0,1.94-.11c.63-.07,1.26-.16,1.87-.26l7.27,7.25a30.74,30.74,0,0,1-5.31,1.69,27.9,27.9,0,0,1-16.59-1.56A27.62,27.62,0,0,1,148,46.73a27.87,27.87,0,0,1,0-21.61,28.29,28.29,0,0,1,5.92-8.89,27.51,27.51,0,0,1,8.84-6,28,28,0,0,1,21.66,0,27.78,27.78,0,0,1,14.8,14.85A27,27,0,0,1,201.38,35.91Z"/></g></g></svg>