<svg xmlns="http://www.w3.org/2000/svg" viewBox="0 0 29.31 29.26"><defs><style>.cls-1{fill:#fff;}</style></defs><title>phone</title><g id="Слой_2" data-name="Слой 2"><g id="Слой_1-2" data-name="Слой 1"><path class="cls-1" d="M0,4l0-.64a1.84,1.84,0,0,1,1.58-2C3.27.9,5,.5,6.67.13A4.09,4.09,0,0,1,7.82,0,1.66,1.66,0,0,1,9.25,1.17c.55,1.3,1.12,2.61,1.67,3.91l.89,2.06a1.77,1.77,0,0,1-.55,2.27c-.91.76-1.82,1.51-2.75,2.25a.33.33,0,0,0-.09.5,20,20,0,0,0,8.77,8.74c.2.1.29.05.42-.1.71-.9,1.45-1.79,2.17-2.68a1.84,1.84,0,0,1,2.43-.63L28.09,20a1.81,1.81,0,0,1,1.15,2.25c-.42,1.87-.86,3.74-1.3,5.6a1.73,1.73,0,0,1-1.8,1.4A25.66,25.66,0,0,1,9.16,23a25.67,25.67,0,0,1-7.95-12A25,25,0,0,1,0,4ZM7.54,1.8c-1.86.43-3.7.85-5.53,1.29a.31.31,0,0,0-.16.26c.07,1.12.09,2.24.26,3.34A23.93,23.93,0,0,0,9.54,20.85a24,24,0,0,0,16.32,6.6c.23,0,.33-.06.38-.3.38-1.68.77-3.37,1.17-5,.07-.27,0-.39-.25-.5-1.86-.79-3.71-1.58-5.56-2.39a.34.34,0,0,0-.48.13c-1,1.22-2,2.44-3,3.66-.16.2-.29.27-.53.13-.75-.41-1.53-.78-2.27-1.2a21.5,21.5,0,0,1-4.8-3.68,24.8,24.8,0,0,1-4.42-6.62.3.3,0,0,1,.09-.45L7.86,9.84,10.17,8Z"/></g></g></svg>