<svg xmlns="http://www.w3.org/2000/svg" viewBox="0 0 29.31 29.27"><defs><style>.cls-1{fill:#214b83;}</style></defs><title>Phone Icon</title><g id="Слой_2" data-name="Слой 2"><g id="Слой_1-2" data-name="Слой 1"><path class="cls-1" d="M29.24,22.26c-.42,1.87-.86,3.74-1.3,5.61a1.72,1.72,0,0,1-1.79,1.4A25.72,25.72,0,0,1,9.16,23,25.8,25.8,0,0,1,1.21,11,25.09,25.09,0,0,1,0,4l0-.63a1.86,1.86,0,0,1,1.58-2C3.27.9,5,.51,6.67.14A3.83,3.83,0,0,1,7.83,0,1.69,1.69,0,0,1,9.25,1.17c.55,1.31,1.12,2.61,1.67,3.91l.89,2.07a1.77,1.77,0,0,1-.55,2.27c-.91.76-1.82,1.51-2.75,2.25a.33.33,0,0,0-.09.5,20,20,0,0,0,8.77,8.73c.2.1.29.06.42-.1.72-.9,1.45-1.78,2.17-2.68a1.84,1.84,0,0,1,2.43-.62q2.94,1.24,5.88,2.52A1.8,1.8,0,0,1,29.24,22.26Z"/></g></g></svg>