<svg xmlns="http://www.w3.org/2000/svg" viewBox="0 0 27 26.96"><defs><style>.cls-1{fill:#fff;}</style></defs><title>phone-white_1</title><g id="Слой_2" data-name="Слой 2"><g id="Слой_1-2" data-name="Слой 1"><path class="cls-1" d="M26.94,20.5q-.59,2.59-1.2,5.17A1.58,1.58,0,0,1,24.09,27,23.66,23.66,0,0,1,8.44,21.15,23.78,23.78,0,0,1,1.12,10.08,22.63,22.63,0,0,1,0,3.65l0-.58A1.7,1.7,0,0,1,1.46,1.19C3,.83,4.58.47,6.15.13A3.2,3.2,0,0,1,7.21,0,1.55,1.55,0,0,1,8.52,1.08l1.54,3.6c.28.63.54,1.27.82,1.9a1.65,1.65,0,0,1-.51,2.1c-.83.7-1.67,1.39-2.53,2.07a.31.31,0,0,0-.08.46,18.31,18.31,0,0,0,8.08,8c.18.09.26.06.38-.09.67-.83,1.34-1.64,2-2.47a1.7,1.7,0,0,1,2.24-.57c1.81.76,3.61,1.54,5.42,2.32A1.66,1.66,0,0,1,26.94,20.5Z"/></g></g></svg>