<?xml version="1.0" encoding="UTF-8"?>
<!DOCTYPE svg PUBLIC "-//W3C//DTD SVG 1.1//EN" "http://www.w3.org/Graphics/SVG/1.1/DTD/svg11.dtd">
<!-- Creator: CorelDRAW 2019 (64-Bit) -->
<svg xmlns="http://www.w3.org/2000/svg" xml:space="preserve" width="37.2493mm" height="34.3622mm" version="1.1" style="shape-rendering:geometricPrecision; text-rendering:geometricPrecision; image-rendering:optimizeQuality; fill-rule:evenodd; clip-rule:evenodd"
viewBox="0 0 938.17 865.45"
 xmlns:xlink="http://www.w3.org/1999/xlink"
 xmlns:xodm="http://www.corel.com/coreldraw/odm/2003">
 <defs>
  <style type="text/css">
   <![CDATA[
    .fil0 {fill:#365999}
   ]]>
  </style>
 </defs>
 <g id="Слой_x0020_1">
  <metadata id="CorelCorpID_0Corel-Layer"/>
  <path class="fil0" d="M938.17 485.41l-31.04 41.52c-11.29,13.8 -23.6,25.78 -37.34,36.29 -13.05,-85.08 -27.88,-137.71 -74.22,-209.48 -5.54,-8.58 -13.13,-18.07 -16.27,-26.75 10.83,-17.91 34.85,-39.98 59.7,-85.65 13.89,-25.53 37.86,-78.26 27.21,-114.07 -14.85,35.61 -33.09,53.61 -57.96,79 -6.14,6.26 -9.83,10.47 -16.54,17.54l-56.65 47.36c-16.89,-24.05 -57.7,-58.94 -73.83,-77.36 -5.77,-6.58 -7.12,-7.48 -13.21,-12.38 -24.31,-19.54 -35.91,-32.76 -69.6,-56.2 -19.83,-13.8 -41.43,-27.44 -60.62,-40.88 3,-6.19 8.32,-11.52 12.67,-17.26 13.26,-17.5 27.09,-35.3 34.97,-57.3 -20.81,15.07 -55.7,49.18 -73.62,58.75 -39.61,-15.06 -59.03,-35.27 -133.53,-57.95 -44.2,-13.45 -47.06,-10.28 -47.06,-10.28l-2.94 1.08c18.41,-3.1 72.8,22.95 89.28,31.78 14.66,7.85 25.28,14.25 38.96,22.78 7.48,4.66 30.59,18.91 37.01,25.79l-7.37 6.41c-21.42,16.69 -118.15,80.74 -130.01,83.09 -8.22,-9.96 -14.61,-19.62 -21.56,-29.56l-66.07 -93.83c5.16,16.72 64.13,115.87 69.8,136.92 -10.28,3.43 -25.08,12.84 -35.3,18.68 -18.91,10.8 -94.28,50.86 -108.18,53.18 -2.8,-28.24 -6.1,-54.2 -6.19,-83.19 -0.1,-29.79 6.63,-58 6.92,-82.58 -25.03,91.65 -10.44,121.47 -18.32,174.27 -18.13,10.95 -89.17,35.67 -112.62,37.78 3.45,-27.87 12.09,-61.89 20.18,-87.35 4.46,-14.02 9.47,-27.62 15.11,-40.35 5.29,-11.95 13.96,-27.32 17.65,-38.49 -18.83,21.69 -44.7,94.73 -52.2,121.27 -3.94,13.94 -7.69,34.4 -12.45,46.99 -12.79,0.7 -23.39,1.08 -32.86,-4.88 2.88,18.6 14.98,25.67 28.21,35.4 -3.05,94.55 -10.87,126.15 17.14,220.44 6.19,20.82 17.24,42.12 22.17,60.83 -10.27,-0.91 -22.84,-3.79 -26.84,-9.15 1.47,6.42 14.33,27.51 18.72,34.47 19.84,31.47 36.33,26.82 46,39.28 52.41,67.58 83.31,103.3 171.46,144.09 44.6,20.64 132.18,44.06 189.41,39.36 14.84,-1.22 32.71,-4.81 47.46,-8.47 34.39,-8.54 45.89,3.62 100.81,-14.28 13.63,-4.44 30.04,-12.23 40.82,-15.23 -24.92,2.62 -29.97,5.23 -58,2.13l38.86 -20.69c11.76,-6.39 26.91,-16.55 37.53,-20.43 21.85,25.36 35.62,12.12 49.73,3.29 26.82,-16.79 26,-14.65 14.23,-47.55l53.54 -42.57c7.39,-6.04 10.01,-10.48 17.86,-15.58 -2.67,22.89 -14.12,50.93 -26.11,60.83 20.93,-18.53 31.79,-27.73 50.52,-51.97 24.63,-31.87 24.77,-59.27 33.8,-70.7 22.88,-28.98 45.46,-59.68 59.37,-96.31 5.19,-13.67 6.58,-28.09 11.48,-41.9zm-797.4 200.64c65.29,78.2 101.33,112.73 202.19,154.38 18.45,7.62 20.92,6.7 49.26,-1.07 8.99,-2.47 33.6,-9.15 41.67,-13.78l2.56 -1.75c-15.3,-11.8 -31.79,-19.94 -45.68,-31.18 -15.9,-12.87 -28.85,-23.57 -41.65,-37.24 -20.9,-22.32 -51.94,-58.89 -68.87,-89.47 -16.51,1.46 -44.36,11.04 -63.8,14.56 -28.8,5.21 -47.84,3.48 -75.68,5.55zm205.9 -43.47c3.64,5.91 8.68,11.33 13.15,16.86l58.5 63.04c20.38,18.99 62.65,58.4 86.43,69.43 8.85,4.1 31.85,-10.44 41.9,-15.58 16.55,-8.46 70.7,-35.26 79.76,-44.18l-56.77 -88.49c-8.15,-13.2 -48.03,-85.14 -54.84,-90.38 -13.26,10.94 -62.38,37.74 -79.87,47.38 -14.52,8.01 -28.19,13.73 -43.12,20.91l-45.15 21.02zm-306.34 -302.64c-1.75,52.13 0.7,104.54 11.8,153.53 6.47,28.56 30.94,103.06 45.17,121.27 24.51,-1.77 118.36,-30.78 131.68,-42.54 -12.67,-39.59 -24.92,-58.79 -40.28,-114.79 -11.68,-42.59 -19.67,-85.05 -25.71,-130.08 -17.92,2.98 -36.39,9.75 -56.82,13 -27.96,4.45 -39.8,1.14 -65.83,-0.4zm542.61 165.77l61.59 88.62c20.39,28.14 41.95,60.88 60.14,90.55 13.05,-5.66 89.73,-58.19 104.8,-72.15 1.31,-53.13 -54.99,-196.83 -79.63,-231.62 -13.9,16.8 -87.06,79.67 -107.41,95.68 -8.88,6.99 -30.76,25.3 -39.48,28.92zm-395.76 -186.77c24.77,74.6 29.94,104.81 66.37,175.97 9.21,18 21.76,37.72 28.54,54.31 19.67,-5.18 171.64,-85.52 179.23,-94.28 -18.57,-39.93 -106.25,-194.09 -113.86,-218.46 -10.48,4.12 -27.34,16.63 -38.1,23.21 -51.34,31.43 -68.64,35.56 -122.17,59.26zm183.5 -99.08l148.55 200.88c14.48,-5.13 108.73,-68.74 125.88,-81.2 12.37,-8.99 30.05,-23.25 41.31,-28.69 -12.29,-32.78 -100.34,-132.95 -133.09,-162.64l-25.52 -23.51c-9.04,-7.11 -17.15,-17.09 -27.47,-21.59 -22.54,19.94 -50.18,53.46 -78.44,75.1 -6.17,4.72 -11.58,9.72 -17.43,14.54 -10.06,8.28 -25.05,18.35 -33.79,27.12z"/>
 </g>
</svg>
