<svg xmlns="http://www.w3.org/2000/svg" viewBox="0 0 860.76 746.16"><defs><style>.cls-1,.cls-5,.cls-7{fill:#456399;}.cls-1{fill-rule:evenodd;}.cls-2,.cls-3{fill:none;stroke-miterlimit:10;stroke-width:2px;}.cls-2{stroke:#ccc;}.cls-3{stroke:#456399;}.cls-4,.cls-6{fill:#ccc;}.cls-6{font-size:14.66px;}.cls-6,.cls-7{font-family:HelveticaNeueCyr-Medium, HelveticaNeueCyr;font-weight:500;}.cls-7{font-size:24px;}.cls-8{font-size:48px;}.cls-8,.cls-9{fill:#fff;font-family:HelveticaNeueCyr-Roman, HelveticaNeueCyr;}.cls-9{font-size:34.2px;}</style></defs><title>model</title><g id="Слой_2" data-name="Слой 2"><g id="Слой_1-2" data-name="Слой 1"><path class="cls-1" d="M377.12,325.77l34,46c3.32-1.17,24.91-15.74,28.84-18.6,2.84-2.06,6.89-5.33,9.46-6.57-2.81-7.51-23-30.46-30.49-37.26L413.12,304c-2.07-1.63-3.93-3.92-6.3-5-5.16,4.57-11.49,12.25-18,17.21-1.41,1.08-2.65,2.23-4,3.33-2.3,1.9-5.74,4.2-7.74,6.21m-42,22.7c5.67,17.09,6.86,24,15.21,40.31,2.11,4.13,5,8.64,6.53,12.45,4.51-1.19,39.32-19.6,41.06-21.6-4.25-9.15-24.34-44.47-26.08-50.05-2.4.94-6.27,3.81-8.73,5.32C351.31,342.1,347.34,343,335.08,348.47Zm90.67,42.79,14.11,20.3c4.67,6.45,9.61,13.95,13.78,20.75,3-1.3,20.55-13.33,24-16.53.3-12.17-12.6-45.09-18.25-53.07-3.18,3.85-19.94,18.26-24.61,21.93C432.76,386.24,427.75,390.43,425.75,391.26Zm-124.31-38c-.4,12,.16,24,2.7,35.18,1.49,6.54,7.09,23.61,10.35,27.78,5.62-.4,27.12-7.05,30.17-9.74-2.9-9.07-5.71-13.47-9.23-26.3a222.81,222.81,0,0,1-5.89-29.8c-4.11.68-8.34,2.23-13,3C310.11,354.39,307.4,353.64,301.44,353.28Zm70.18,69.34a40.16,40.16,0,0,0,3,3.86L388,440.92c4.67,4.35,14.35,13.38,19.8,15.91,2,.94,7.29-2.4,9.6-3.57,3.79-1.94,16.19-8.08,18.27-10.12l-13-20.28c-1.86-3-11-19.5-12.56-20.7-3,2.5-14.29,8.64-18.3,10.85-3.32,1.84-6.45,3.15-9.87,4.79Zm-47.17,10c15,17.91,23.22,25.82,46.32,35.36,4.23,1.75,4.79,1.54,11.29-.24,2.06-.56,7.69-2.09,9.54-3.16l.59-.4c-3.51-2.7-7.28-4.57-10.47-7.14a89.93,89.93,0,0,1-9.54-8.53c-4.78-5.12-11.9-13.49-15.77-20.5-3.79.33-10.17,2.53-14.62,3.33C335.19,432.5,330.83,432.1,324.45,432.58Zm182.68-46L500,396.12a50.89,50.89,0,0,1-8.56,8.31c-3-19.49-6.38-31.54-17-48-1.27-2-3-4.14-3.73-6.12,2.48-4.11,8-9.16,13.68-19.63,3.18-5.85,8.67-17.92,6.23-26.13-3.4,8.16-7.58,12.28-13.28,18.1-1.4,1.44-2.25,2.4-3.79,4l-13,10.85c-3.87-5.51-13.22-13.5-16.92-17.72a17,17,0,0,0-3-2.84c-5.56-4.47-8.22-7.5-15.94-12.87-4.54-3.16-9.49-6.29-13.89-9.37a26.13,26.13,0,0,1,2.9-4c3-4,6.21-8.09,8-13.13C417,281.1,409,288.92,404.87,291.11c-9.08-3.45-13.52-8.08-30.59-13.28-10.13-3.08-10.78-2.35-10.78-2.35l-.68.25C367,275,379.5,281,383.28,283c3.35,1.8,5.79,3.26,8.92,5.22,1.72,1.06,7,4.33,8.48,5.91L399,295.6c-4.91,3.83-27.07,18.5-29.78,19-1.89-2.28-3.35-4.5-4.94-6.77l-15.14-21.5c1.18,3.83,14.69,26.54,16,31.37-2.35.78-5.74,2.94-8.09,4.28-4.33,2.47-21.6,11.65-24.78,12.18-.64-6.47-1.4-12.42-1.42-19.06,0-6.82,1.52-13.29,1.58-18.92-5.73,21-2.39,27.83-4.19,39.93-4.16,2.51-20.43,8.17-25.8,8.65a121.75,121.75,0,0,1,4.62-20,90.68,90.68,0,0,1,3.46-9.24c1.21-2.74,3.2-6.26,4-8.82-4.31,5-10.24,21.7-12,27.78-.9,3.19-1.76,7.88-2.85,10.77-2.93.16-5.36.24-7.53-1.12.66,4.26,3.43,5.88,6.46,8.11-.69,21.66-2.49,28.9,3.93,50.5,1.42,4.77,4,9.65,5.08,13.94-2.35-.21-5.23-.87-6.15-2.1.34,1.47,3.28,6.31,4.29,7.9,4.54,7.21,8.32,6.14,10.54,9,12,15.48,19.08,23.66,39.28,33,10.22,4.73,30.28,10.09,43.39,9a74.67,74.67,0,0,0,10.87-1.94c7.88-2,10.52.82,23.1-3.28,3.12-1,6.88-2.8,9.35-3.49-5.71.61-6.86,1.2-13.28.49l8.9-4.74c2.69-1.46,6.16-3.79,8.6-4.68,5,5.81,8.16,2.78,11.39.76,6.14-3.85,6-3.36,3.26-10.9L473.47,436c1.7-1.39,2.3-2.4,4.1-3.57-.62,5.24-3.24,11.67-6,13.93,4.8-4.24,7.29-6.35,11.58-11.9,5.64-7.3,5.67-13.58,7.74-16.2,5.24-6.64,10.42-13.67,13.6-22.06C505.69,393.08,506,389.77,507.13,386.61Z"/><circle class="cls-2" cx="402.2" cy="374.71" r="210.6"/><polyline class="cls-2" points="211.63 186.51 154.67 129.54 0 129.54"/><polyline class="cls-2" points="211.63 562.57 154.67 619.54 0 619.54"/><line class="cls-2" x1="133.75" y1="374.54" x2="0.65" y2="374.54"/><polyline class="cls-3" points="587.7 186.51 644.66 129.54 860.76 129.54"/><polyline class="cls-2" points="587.7 562.57 644.66 619.54 799.33 619.54"/><line class="cls-2" x1="665.59" y1="374.54" x2="798.68" y2="374.54"/><line class="cls-2" x1="399.67" y1="108.62" x2="399.67" y2="85.31"/><line class="cls-2" x1="399.67" y1="663.77" x2="399.67" y2="640.46"/><circle class="cls-4" cx="250.81" cy="225.68" r="55.4"/><circle class="cls-4" cx="189.15" cy="374.54" r="55.4"/><circle class="cls-4" cx="250.81" cy="523.4" r="55.4"/><circle class="cls-4" cx="399.67" cy="585.06" r="55.4"/><circle class="cls-4" cx="548.53" cy="523.4" r="55.4"/><circle class="cls-4" cx="610.19" cy="374.54" r="55.4"/><circle class="cls-5" cx="548.53" cy="225.68" r="75"/><circle class="cls-4" cx="399.67" cy="164.02" r="55.4"/><text class="cls-6" transform="translate(347.86 12.54)">TRANSACTION<tspan x="12.9" y="17.59">SOURCING</tspan><tspan x="24.56" y="52.76">SOON...</tspan></text><text class="cls-6" transform="translate(348.14 690.26)">INDEPENDENT<tspan x="-1.77" y="17.59">LEGAL REVIEW</tspan><tspan x="24.28" y="52.76">SOON...</tspan></text><text class="cls-6" transform="translate(682.75 342.47)">LETTER<tspan x="0" y="17.59">OF INTERNET</tspan><tspan x="0" y="52.76">SOON...</tspan></text><text class="cls-6" transform="translate(22.14 360.06)">MONITORING<tspan x="40.17" y="35.17">SOON...</tspan></text><text class="cls-6" transform="translate(24.32 587.88)">INVESTMENT<tspan x="41.8" y="17.59">TERMS</tspan><tspan x="37.99" y="52.76">SOON...</tspan></text><text class="cls-6" transform="translate(682.75 572.3)">INVESTMENT<tspan x="0" y="17.59">COMMITTEE</tspan><tspan x="0" y="35.17">MEETING</tspan><tspan x="0" y="70.35">SOON...</tspan></text><text class="cls-7" transform="translate(678.01 78.5)">CLAIM<tspan x="0" y="28.8">ASSESSMANT</tspan></text><text class="cls-6" transform="translate(31.37 98.97)">RETURN ON<tspan x="-7.05" y="17.59">INVESTMENT</tspan><tspan x="30.94" y="52.76">SOON...</tspan></text><text class="cls-8" transform="translate(535.18 243.24)">1</text><text class="cls-9" transform="translate(600.18 386.58)">2</text><text class="cls-9" transform="translate(538.96 535)">3</text><text class="cls-9" transform="translate(390.1 596.66)">4</text><text class="cls-9" transform="translate(241.24 535)">5</text><text class="cls-9" transform="translate(179.58 386.14)">6</text><text class="cls-9" transform="translate(241.24 237.28)">7</text><text class="cls-9" transform="translate(390.1 175.62)">8</text></g></g></svg>